<?xml version="1.0" encoding="utf-8" ?><svg xmlns="http://www.w3.org/2000/svg" xmlns:xlink="http://www.w3.org/1999/xlink" width="1024" height="1024" viewBox="0 0 1024 1024"><defs><linearGradient id="gradient_0" gradientUnits="userSpaceOnUse" x1="673.20703" y1="612.28766" x2="447.6362" y2="370.93378"><stop offset="0" stop-color="#B8A798"/><stop offset="1" stop-color="#E8E2DB"/></linearGradient></defs><path fill="url(#gradient_0)" d="M566.487 255.704C571.482 256.696 576.419 257.963 581.274 259.501L766.994 330.529L814.771 348.349C826.154 352.58 837.539 356.745 848.581 361.922C854.52 364.707 861.756 369.534 859.194 377.285C857.197 383.325 842.291 386.509 841.332 391.366C837.66 411.314 832.932 434.052 843.869 453.533C844.037 453.832 844.293 454.077 844.531 454.325C850.817 456.779 853.445 458.313 848.564 464.663C857.76 466.286 874.04 471.699 871.776 484.098C870.922 488.77 866.015 492.646 862.1 494.99C860.241 496.251 844.959 505.57 843.417 506.215C843.133 508.546 842.968 509.676 843.04 511.994C843.031 515.838 842.446 521.55 844.777 524.367C846.129 525.06 846.162 525.111 847.627 525.443C851.422 526.921 859.452 529.17 860.116 533.498C858.962 537.259 857.453 538.746 854.289 541.132L851.174 542.685C849.405 544.11 843.194 548.47 842.38 549.285C840.319 550.639 837.761 552.681 835.418 552.917C832.608 554.029 809.815 569.777 805.239 572.809C780.825 588.962 756.315 604.971 731.71 620.834C683.197 651.619 634.927 682.784 586.903 714.327C584.15 716.15 580.772 717.683 577.979 719.468L539.757 744.366C535.956 746.803 524.157 753.989 521.049 756.511C519.194 758.475 517.984 758.761 516.01 760.234C513.9 761.371 509.911 764.14 508.004 765.692C498.439 772.127 489.213 779.018 477.348 779.697C474.676 779.413 473.509 779.167 470.9 778.494C467.536 778.213 460.566 775.772 457.45 774.367C448.622 770.827 439.191 766.498 430.44 762.683C425.829 760.672 417.622 757.191 413.381 754.876C408.162 753.078 396.253 747.239 390.745 744.757L347.836 725.665C324.437 716.062 301.304 705.032 278.052 695.033C275.405 693.895 272.577 692.59 270.033 691.253L268.121 690.579C266.681 690.077 265.571 689.502 264.212 688.839C262.137 687.083 241.892 678.752 238.452 677.615C233.512 675.13 228.383 673.359 223.348 670.773L221.544 670.169C214.545 677.137 206.566 685.094 200.177 692.568C196.617 696.683 192.247 703.599 186.267 700.876C185.529 697.63 185.849 696.508 186.391 693.31C183.225 693.971 180.045 694.564 176.854 695.088C174.516 695.867 166.945 696.972 164.371 696.376C164.067 692.447 198.826 662.142 197.731 657.456C192.272 655.04 187.691 645.883 185.877 640.484C182.234 629.645 181.87 615.799 187.037 605.402C191.337 597.127 216.915 582.999 225.598 577.256C229.001 575.006 237.166 569.48 240.579 567.396C235.496 564.634 232.04 564.713 226.493 560.556C218.657 554.684 211.384 538.93 210.288 529.689C207.235 519.305 207.186 503.608 208.767 492.754C210.304 482.204 212.784 476.491 221.32 470.171C251.086 450.524 281.43 432.345 311.658 413.541L471.577 314.02L537.052 273.149C543.127 269.364 560.74 257.469 566.487 255.704Z"/><defs><linearGradient id="gradient_1" gradientUnits="userSpaceOnUse" x1="838.07043" y1="483.48438" x2="247.80966" y2="373.52759"><stop offset="0" stop-color="#383435"/><stop offset="1" stop-color="#595757"/></linearGradient></defs><path fill="url(#gradient_1)" d="M566.487 255.704C571.482 256.696 576.419 257.963 581.274 259.501L766.994 330.529L814.771 348.349C826.154 352.58 837.539 356.745 848.581 361.922C854.52 364.707 861.756 369.534 859.194 377.285C857.197 383.325 842.291 386.509 841.332 391.366C840.926 391.306 840.52 391.246 840.115 391.186C836.931 393.333 832.096 396.467 829.015 398.43L775.457 432.74L577.956 560.931C565.768 568.786 553.83 576.953 541.508 584.639C528.419 592.802 514.489 603.945 498.311 595.295C499.251 594.118 497.271 595.164 500.62 592.817L499.995 592.191C502.879 592.107 504.976 592.509 506.931 590.131C506.628 586.328 492.332 580.313 489.254 579.881C487.972 576.843 485.693 576.706 482.719 575.98C474.9 573.659 477.227 571.068 471.084 568.993C468.306 565.868 467.168 565.446 462.989 565.265C460.122 564.998 459.994 564.548 457.499 563.252C456.214 563.844 456.775 563.395 456.098 565.017L451.571 561.6L451.082 562.275L451.288 563.402C449.659 563.65 437.241 559.882 434.85 559.015C429.821 557.192 425.293 554.551 422.91 549.494C416.744 548.524 412.877 546.246 409.539 545.675L407.839 544.958C405.565 543.125 404.226 542.216 401.794 540.663C397.941 538.32 392.654 537.64 389.571 535.74C385.953 532.289 382.657 530.901 378.183 528.821C369.227 524.659 365.709 528.305 358.152 519.97C355.471 519.468 352.635 519.678 352.724 516.438C346.233 514.308 345.201 513.347 339.789 511.182C330.475 506.559 323.467 505.435 314.02 502.231C310.779 501.132 311.261 499.62 304.583 497.642C303.936 497.74 296.47 496.399 294.901 496.198L295.159 496.471C292.927 497.086 293.999 497.16 291.836 496.152C289.636 496.569 289.436 496.688 287.306 496.241L285.988 496.828C283.482 495.793 283.861 492.922 282.167 491.811C280.04 490.417 276.285 489.354 273.927 488.054L273.2 487.646C267.322 486.044 253.284 480.583 248.514 481.391L248.328 482.005L249.845 483.956C247.828 483.605 230.306 476.196 227.707 474.994L228.205 472.919L226.04 474.516L225.54 473.754C224.446 473.359 224.327 473.338 223.201 473.342L222.3 473.352C221.154 472.179 221.527 472.278 221.32 470.171C251.086 450.524 281.43 432.345 311.658 413.541L471.577 314.02L537.052 273.149C543.127 269.364 560.74 257.469 566.487 255.704Z"/><defs><linearGradient id="gradient_2" gradientUnits="userSpaceOnUse" x1="398.66229" y1="372.49796" x2="389.56937" y2="358.85062"><stop offset="0" stop-color="#303532"/><stop offset="1" stop-color="#594F55"/></linearGradient></defs><path fill="url(#gradient_2)" d="M221.32 470.171C251.086 450.524 281.43 432.345 311.658 413.541L471.577 314.02L537.052 273.149C543.127 269.364 560.74 257.469 566.487 255.704C566.02 258.321 565.489 258.992 564.206 261.317C560.616 264.59 557.086 265.262 555.107 269.314C551.809 271.943 525.8 288.546 522.479 289.73C509.307 297.893 496.596 306.38 483.482 314.603C478.383 317.801 471.35 322.535 466.124 325.331C464.122 327.306 450.252 335.881 447.468 336.715C443.986 338.914 439.84 341.65 436.099 343.223L435.785 343.491C431.55 346.837 415.981 356.452 410.692 359.39C410.418 359.552 409.181 360.31 408.931 360.398C403.929 363.734 391.689 370.684 388.037 373.766C383.624 376.031 378.936 379.576 374.608 382.185C364.11 388.512 352.824 396.6 342.168 402.42C339.806 404.063 329.78 410.487 327.502 411.407C320.708 416.043 312.244 420.782 305.15 425.194C295.258 431.345 285.127 437.997 275.118 443.864C271.433 446.591 266.683 449.001 262.788 451.549C253.955 457.327 245.216 462.734 236.042 467.959L228.205 472.919L226.04 474.516L225.54 473.754C224.446 473.359 224.327 473.338 223.201 473.342L222.3 473.352C221.154 472.179 221.527 472.278 221.32 470.171Z"/><path fill="#161414" d="M342.168 402.42C343.155 399.438 368.186 384.534 372.007 382.243C377.917 378.7 404.298 360.083 408.931 360.398C403.929 363.734 391.689 370.684 388.037 373.766C383.624 376.031 378.936 379.576 374.608 382.185C364.11 388.512 352.824 396.6 342.168 402.42Z"/><path fill="#161414" d="M466.124 325.331C467.53 322.038 476.704 317.021 480.312 314.718L517.509 291.242C519.579 289.963 520.43 289.231 522.479 289.73C509.307 297.893 496.596 306.38 483.482 314.603C478.383 317.801 471.35 322.535 466.124 325.331Z"/><path fill="#161414" d="M275.118 443.864L275.496 442.789C280.946 438.706 323.471 410.852 327.502 411.407C320.708 416.043 312.244 420.782 305.15 425.194C295.258 431.345 285.127 437.997 275.118 443.864Z"/><path fill="#161414" d="M410.692 359.39L411.581 357.432C416.176 354.142 431.047 344.313 435.785 343.491C431.55 346.837 415.981 356.452 410.692 359.39Z"/><path fill="#161414" d="M436.099 343.223C437.47 340.719 444.57 336.028 447.468 336.715C443.986 338.914 439.84 341.65 436.099 343.223Z"/><path fill="#6D6C6C" d="M566.487 255.704C571.482 256.696 576.419 257.963 581.274 259.501C575.756 263.494 570.748 264.325 564.985 267.899C554.606 274.335 544.948 281.491 535.092 288.606C530.435 291.967 523.115 295.416 517.942 298.398C510.043 303.049 502.18 307.759 494.352 312.528L416.841 359.476C411.657 362.579 406.516 365.755 401.42 369C398.337 371.002 394.016 374.148 391.025 375.844L390.163 375.386C390.704 374.405 391.282 373.535 391.889 372.598C390.643 373.197 389.381 373.433 388.037 373.766C391.689 370.684 403.929 363.734 408.931 360.398C409.181 360.31 410.418 359.552 410.692 359.39C415.981 356.452 431.55 346.837 435.785 343.491L436.099 343.223C439.84 341.65 443.986 338.914 447.468 336.715C450.252 335.881 464.122 327.306 466.124 325.331C471.35 322.535 478.383 317.801 483.482 314.603C496.596 306.38 509.307 297.893 522.479 289.73C525.8 288.546 551.809 271.943 555.107 269.314C557.086 265.262 560.616 264.59 564.206 261.317C565.489 258.992 566.02 258.321 566.487 255.704Z"/><path fill="#161414" d="M564.206 261.317C567.528 259.677 570.024 259.397 573.659 258.832C566.548 262.254 561.844 265.011 555.107 269.314C557.086 265.262 560.616 264.59 564.206 261.317Z"/><defs><linearGradient id="gradient_3" gradientUnits="userSpaceOnUse" x1="318.86307" y1="426.19092" x2="310.62289" y2="414.78964"><stop offset="0" stop-color="#6D6C6D"/><stop offset="1" stop-color="#9A9899"/></linearGradient></defs><path fill="url(#gradient_3)" d="M388.037 373.766C389.381 373.433 390.643 373.197 391.889 372.598C391.282 373.535 390.704 374.405 390.163 375.386L391.025 375.844C382.825 382.375 375.613 385.253 367.286 390.533L316.818 423.172C312.368 426.009 308.579 429.831 304.258 432.774C287.934 443.892 271.348 454.622 254.537 464.991C250.582 467.43 240.028 474.014 236.205 468.94L236.042 467.959C245.216 462.734 253.955 457.327 262.788 451.549C266.683 449.001 271.433 446.591 275.118 443.864C285.127 437.997 295.258 431.345 305.15 425.194C312.244 420.782 320.708 416.043 327.502 411.407C329.78 410.487 339.806 404.063 342.168 402.42C352.824 396.6 364.11 388.512 374.608 382.185C378.936 379.576 383.624 376.031 388.037 373.766Z"/><path fill="#7C7B7C" d="M273.2 487.646C269.594 484.249 262.529 484.819 260.54 481.128C261.984 480.893 286.442 490.715 291.453 491.736C291.565 490.923 291.595 491.321 291.365 490.541C292.344 490.721 292.898 490.948 293.684 491.555C297.168 494.25 300.165 494.771 304.245 496.32L304.724 497.1L304.583 497.642C303.936 497.74 296.47 496.399 294.901 496.198L295.159 496.471C292.927 497.086 293.999 497.16 291.836 496.152C289.636 496.569 289.436 496.688 287.306 496.241L285.988 496.828C283.482 495.793 283.861 492.922 282.167 491.811C280.04 490.417 276.285 489.354 273.927 488.054L273.2 487.646Z"/><path fill="#5F5D5E" d="M287.306 496.241C286.649 494.259 286.387 494.511 286.805 492.81C288.689 492.471 290.882 493.932 293.202 494.285C292.718 494.862 292.089 495.432 291.836 496.152C289.636 496.569 289.436 496.688 287.306 496.241Z"/><path fill="#6D6C6C" d="M407.839 544.958C412.553 544.646 427.117 545.785 429.463 550.067L427.687 550.217C428.071 551.498 433.542 556.763 434.629 557.053C441.174 558.798 445.078 558.526 451.571 561.6L451.082 562.275L451.288 563.402C449.659 563.65 437.241 559.882 434.85 559.015C429.821 557.192 425.293 554.551 422.91 549.494C416.744 548.524 412.877 546.246 409.539 545.675L407.839 544.958Z"/><path fill="#7C7B7C" d="M228.205 472.919L236.042 467.959L236.205 468.94C233.802 470.468 230.029 473.217 227.707 474.994L228.205 472.919Z"/><path fill="#FEFEFE" d="M240.579 567.396L241.088 567.397C242.741 568.87 244.102 570.104 245.638 571.696C263.525 580.374 281.933 587.714 299.787 596.442C306.522 599.735 318.36 602.269 324.006 606.88C341.815 611.123 366.153 624.775 383.695 631.975C410.834 643.114 438.012 654.52 465.009 665.978C471.879 668.894 495.482 680.215 502.272 681.405C503.995 682.1 508.236 683.648 509.611 684.329C505.55 685.528 495.506 677.565 492.973 681.123C493.072 682.918 493.174 683.691 494.123 685.332L493.521 685.717C492.165 682.479 493.501 680.163 490.247 679.041C488.542 679.423 488.114 679.424 486.632 680.426C486.588 680.639 486.094 683.03 486.093 683.031C484.69 685.43 480.897 686.308 481.91 689.005L481.493 690.324L480.538 690.724C477.514 689.459 477.554 688.356 477.313 685.272L476.448 684.164C473.639 686.262 476.334 690.613 473.187 693.98L475.463 695.684C477.674 696.375 477.027 695.712 477.939 697.254C477.626 699.224 477.288 699.075 478.115 700.321C480.25 700.925 480.339 700.687 481.738 698.703C481.961 700.189 482.214 702.355 482.647 703.715C480.931 704.787 481.496 704.075 480.753 705.805C481.202 708.195 481.936 709.364 481 711.051L479.264 712.025L479.02 713.042L479.561 713.883C481.611 713.789 481.814 712.974 483.541 712.377C483.025 714.462 483.299 715.436 483.59 717.578L483.96 717.912L485.102 716.651C487.032 717.323 487.39 718 487.745 720.088C485.705 723.625 472.445 725.501 468.287 724.79C467.116 724.59 466.154 724.381 464.936 724.463L465.288 727.807C462.913 726.719 461.843 726.158 459.273 725.581L460.527 727.303C460.197 727.774 459.867 728.246 459.536 728.717C460.843 728.923 460.338 728.937 461.634 728.511C462.668 729.755 461.107 757.76 460.919 761.463C464.644 763.421 468.296 764.514 472.524 764.12L473.419 764.749L476.987 766.344C476.313 767.974 475.457 769.244 475.708 770.76C476.952 769.669 476.704 769.648 478.174 769.152C483.411 770.487 488.87 768.958 493.982 767.665C476.954 777.376 473.123 771.205 457.45 774.367C448.622 770.827 439.191 766.498 430.44 762.683C425.829 760.672 417.622 757.191 413.381 754.876C408.162 753.078 396.253 747.239 390.745 744.757L347.836 725.665C324.437 716.062 301.304 705.032 278.052 695.033C275.405 693.895 272.577 692.59 270.033 691.253L268.121 690.579C266.681 690.077 265.571 689.502 264.212 688.839C262.137 687.083 241.892 678.752 238.452 677.615C233.512 675.13 228.383 673.359 223.348 670.773L221.544 670.169C214.545 677.137 206.566 685.094 200.177 692.568C196.617 696.683 192.247 703.599 186.267 700.876C185.529 697.63 185.849 696.508 186.391 693.31C183.225 693.971 180.045 694.564 176.854 695.088C174.516 695.867 166.945 696.972 164.371 696.376C164.067 692.447 198.826 662.142 197.731 657.456C192.272 655.04 187.691 645.883 185.877 640.484C182.234 629.645 181.87 615.799 187.037 605.402C191.337 597.127 216.915 582.999 225.598 577.256C229.001 575.006 237.166 569.48 240.579 567.396Z"/><path fill="#DBAC6C" d="M245.638 571.696C263.525 580.374 281.933 587.714 299.787 596.442C306.522 599.735 318.36 602.269 324.006 606.88C341.815 611.123 366.153 624.775 383.695 631.975C410.834 643.114 438.012 654.52 465.009 665.978C471.879 668.894 495.482 680.215 502.272 681.405C503.995 682.1 508.236 683.648 509.611 684.329C505.55 685.528 495.506 677.565 492.973 681.123C493.072 682.918 493.174 683.691 494.123 685.332L493.521 685.717C492.165 682.479 493.501 680.163 490.247 679.041C488.542 679.423 488.114 679.424 486.632 680.426C486.588 680.639 486.094 683.03 486.093 683.031C484.69 685.43 480.897 686.308 481.91 689.005L481.493 690.324L480.538 690.724C477.514 689.459 477.554 688.356 477.313 685.272L476.448 684.164C473.639 686.262 476.334 690.613 473.187 693.98L475.463 695.684C477.674 696.375 477.027 695.712 477.939 697.254C477.626 699.224 477.288 699.075 478.115 700.321C480.25 700.925 480.339 700.687 481.738 698.703C481.961 700.189 482.214 702.355 482.647 703.715C480.931 704.787 481.496 704.075 480.753 705.805C481.202 708.195 481.936 709.364 481 711.051L479.264 712.025L479.02 713.042L479.561 713.883C481.611 713.789 481.814 712.974 483.541 712.377C483.025 714.462 483.299 715.436 483.59 717.578L483.96 717.912L485.102 716.651C487.032 717.323 487.39 718 487.745 720.088C485.705 723.625 472.445 725.501 468.287 724.79C467.116 724.59 466.154 724.381 464.936 724.463C463.882 724.22 462.496 723.648 461.445 723.262C461.037 720.909 455.988 718.977 453.905 717.959C451.897 717.07 449.63 715.811 447.657 714.781C434.245 708.372 420.224 702.856 406.902 696.018C400.682 692.826 392.915 690.485 386.377 687.392C367.857 678.63 349.441 669.619 330.283 662.312C306.869 650.524 280.664 641.666 257.642 629.716C250.734 626.886 243.471 623.498 236.605 620.46C229.977 617.527 217.776 613.089 211.782 609.415C212.508 608.317 212.34 608.705 212.676 607.507C211.642 606.808 211.954 607.081 211.11 606.06C211.481 604.312 211.049 604.982 212.315 603.9C214.648 603.911 214.898 605.242 216.404 605.295C214.65 599.507 217.6 601.705 217.227 599.625C215.635 590.754 213.872 588.759 224.471 583.068C228.234 580.187 241.213 573.893 245.638 571.696Z"/><path fill="#DBAC6C" d="M245.638 571.696C263.525 580.374 281.933 587.714 299.787 596.442C306.522 599.735 318.36 602.269 324.006 606.88C323.986 607.002 323.527 610.755 323.663 610.15C322.973 613.239 321.501 615.802 320.54 619.192C321.701 620.209 321.198 619.884 322.757 620.328C322.889 621.595 322.838 621.544 322.476 622.785L322.938 623.572C327.236 622.535 327.736 617.359 331.264 616.676C331.333 616.625 331.402 616.574 331.471 616.523C333.04 615.662 333.044 615.514 334.881 615.584L335.847 616.201C335.707 618.596 334.316 618.696 332.214 619.621C332.197 621.575 332.005 622.182 331.315 623.97L331.825 624.562L334.066 624.297L334.602 624.877C334.141 627.656 333.762 626.325 332.96 628.19C332.692 628.272 330.502 628.934 330.477 628.945C326.331 630.658 326.5 628.144 324.76 628.007C323.462 629.704 323.378 630.487 321.445 629.512L320.843 627.571L320.334 627.442C319.863 628.265 319.383 629.083 318.895 629.897L318.303 629.481C318.5 626.539 319.713 623.205 317.399 621.282C314.905 620.946 312.305 621.896 309.793 622.554C310.214 618.724 311.043 615.11 309.461 611.643C308.189 610.741 308.835 610.823 307.546 611.001L307.453 612.157C306.4 613.12 306.261 613.383 305.418 614.56C305.732 616.966 306.958 615.63 307.79 618.014L306.074 619.666C305.148 621.195 304.219 622.78 303.249 624.277L302.497 624.809C300.865 625.943 300.103 626.414 298.332 626.096L297.876 625.175C298.006 623.287 298.448 622.714 299.299 621.048C298.222 619.61 298.875 619.948 297.473 619.395C295.24 620.413 292.006 622.774 289.291 624.263C291.135 621.636 294.363 619.17 292.515 615.758C290.573 617.114 290.812 617.283 288.909 617.11C287.313 615.939 286.391 613.3 285.511 611.396L285.091 611.926C283.294 614.168 283.396 614.533 280.508 614.79C282.482 619.529 286.323 613.996 282.564 623.39C280.626 624.78 279.181 625.041 278.473 626.63C279.368 628.333 278.731 627.893 280.113 628.611C283.19 626.789 285.051 623.59 288.686 626.189L288.043 627.618C287.23 629.51 286.725 629.932 285.271 631.447L285.442 632.296C286.47 632.168 287.501 632.059 288.533 631.969L288.974 632.733L288.126 634.961C291.351 639.954 296.588 632.824 300.106 639.627C303.141 639.52 302.784 636.566 306.545 639.11C307.489 640.618 307.153 641.592 306.956 643.396C308.959 644.614 308.748 642.67 310.783 643.929C310.894 644.971 311.024 645.979 311.288 646.994C314.302 647.27 316.8 644.039 320.539 644.606C322.414 647.045 322.261 652.68 324.656 653.405C325.138 651.03 324.755 650.96 326.141 649.463C330.575 648.995 330.17 652.336 332.978 652.686C333.512 651.621 333.525 651.425 333.816 650.254L334.678 650.22L335.493 651.596C336.287 651.658 337.002 651.761 337.783 651.937L338.206 653.08C336.991 655.16 335.895 654.422 335.233 655.28L335.715 655.708C336.953 656.828 337.681 657.205 337.945 658.807C337.452 660.445 337.937 659.84 336.792 660.896C334.555 660.072 334.005 659.436 332.023 659.85L330.283 662.312C306.869 650.524 280.664 641.666 257.642 629.716C250.734 626.886 243.471 623.498 236.605 620.46C229.977 617.527 217.776 613.089 211.782 609.415C212.508 608.317 212.34 608.705 212.676 607.507C211.642 606.808 211.954 607.081 211.11 606.06C211.481 604.312 211.049 604.982 212.315 603.9C214.648 603.911 214.898 605.242 216.404 605.295C214.65 599.507 217.6 601.705 217.227 599.625C215.635 590.754 213.872 588.759 224.471 583.068C228.234 580.187 241.213 573.893 245.638 571.696Z"/><path fill="#D49F59" d="M245.638 571.696C263.525 580.374 281.933 587.714 299.787 596.442C306.522 599.735 318.36 602.269 324.006 606.88C323.986 607.002 323.527 610.755 323.663 610.15C322.973 613.239 321.501 615.802 320.54 619.192C321.701 620.209 321.198 619.884 322.757 620.328C322.889 621.595 322.838 621.544 322.476 622.785L322.938 623.572C327.236 622.535 327.736 617.359 331.264 616.676C331.333 616.625 331.402 616.574 331.471 616.523C333.04 615.662 333.044 615.514 334.881 615.584L335.847 616.201C335.707 618.596 334.316 618.696 332.214 619.621C332.197 621.575 332.005 622.182 331.315 623.97L331.825 624.562L334.066 624.297L334.602 624.877C334.141 627.656 333.762 626.325 332.96 628.19C332.692 628.272 330.502 628.934 330.477 628.945C326.331 630.658 326.5 628.144 324.76 628.007C323.462 629.704 323.378 630.487 321.445 629.512L320.843 627.571L320.334 627.442C319.863 628.265 319.383 629.083 318.895 629.897L318.303 629.481C318.5 626.539 319.713 623.205 317.399 621.282C314.905 620.946 312.305 621.896 309.793 622.554C310.214 618.724 311.043 615.11 309.461 611.643C308.189 610.741 308.835 610.823 307.546 611.001L307.453 612.157C306.4 613.12 306.261 613.383 305.418 614.56C305.732 616.966 306.958 615.63 307.79 618.014L306.074 619.666C305.148 621.195 304.219 622.78 303.249 624.277L302.497 624.809C300.865 625.943 300.103 626.414 298.332 626.096L297.876 625.175C298.006 623.287 298.448 622.714 299.299 621.048C298.222 619.61 298.875 619.948 297.473 619.395C295.24 620.413 292.006 622.774 289.291 624.263C291.135 621.636 294.363 619.17 292.515 615.758C290.573 617.114 290.812 617.283 288.909 617.11C287.313 615.939 286.391 613.3 285.511 611.396C282.983 611.114 282.492 611.954 279.945 612.477C279.203 612.15 278.902 612.147 278.115 612.021C277.627 612.392 277.188 612.817 276.594 612.994C275.986 611.079 276.017 610.371 274.581 609.505C273.911 609.934 273.523 610.197 272.883 610.691L272.359 611.103C270.041 609.787 271.595 607.687 269.092 604.838L267.646 605.227C266.435 605.809 267.083 605.731 265.713 605.634C264.929 603.412 264.049 600.167 262.806 598.256C262.169 597.276 261.916 597.591 260.306 597.338L260.054 596.521L261.133 594.651C258.531 587.981 258.33 593.361 252.383 588.662C252.631 591.574 253.226 592.383 250.743 594.01C248.925 593.889 249.788 594.148 248.159 592.951C249.144 591.782 250.623 590.347 250.846 588.946L250.393 588.919C248.254 590.004 249.038 589.976 246.927 589.737C243.843 587.853 244.423 583.883 240.515 583.203C239.536 584.548 239.846 586.733 239.804 588.694C238.814 589.69 239.391 589.392 237.967 589.447C236.934 588.259 236.577 585.93 235.926 584.263L235.073 584.05C234.54 584.891 234.384 585.098 233.725 585.845C231.576 585.119 232.006 584.041 229.677 582.039C227.467 582.964 226.82 583.501 224.471 583.068C228.234 580.187 241.213 573.893 245.638 571.696Z"/><path fill="#DBAC6C" d="M288.613 607.502C290.571 605.165 289.301 606.135 292.533 605.672C294.679 605.364 300.871 605.516 302.614 606.766C301.814 611.041 297.164 607.586 303.551 616.987C302.05 618.605 300.828 619.563 299.299 621.048C298.222 619.61 298.875 619.948 297.473 619.395C295.24 620.413 292.006 622.774 289.291 624.263C291.135 621.636 294.363 619.17 292.515 615.758C291.35 612.733 289.792 612.838 289.2 610.794C290.174 609.982 290.323 609.913 291.064 608.906C289.97 607.609 290.52 608.182 288.613 607.502Z"/><path fill="#DBAC6C" d="M267.872 596.476L268.398 595.392L269.224 595.195C272.637 594.353 274.924 592.905 278.803 592.175L279.408 592.556C279.166 593.808 278.312 594.508 277.435 595.491L277.296 596.581C278.71 597.33 280.09 597.094 281.738 597.058C282.358 598.518 283.122 601.03 284.369 601.733L285.011 601.684C285.884 600.639 286.104 600.603 286.547 599.414C288.796 598.615 289.224 598.286 291.491 598.598C289.814 599.655 287.107 600.517 286.969 602.373C285.31 605.341 283.183 605.362 282.497 607.142L282.483 608.42L281.859 608.677C280.152 607.197 279.861 606.566 278.592 604.634L278.58 604.039C279.421 602.902 280.026 601.997 280.789 600.821L280.515 599.96L280.886 599.659L278.208 600.832C275.491 599.833 278.645 600.154 276.536 598.067C275.415 598.686 275.296 599.399 274.741 600.605C273.522 601.661 274.219 601.201 273.183 601.535C272.128 601.875 270.284 603.876 269.092 604.838L267.646 605.227C269.212 603.296 270.196 602.194 270.308 599.669C268.843 598.502 268.474 598.906 266.126 598.786L266.002 598.175L267.872 596.476Z"/><path fill="#DBAC6C" d="M252.859 581.84L254.712 581.314C258.829 584.169 260.716 584.205 265.515 584.116C264.14 585.425 262.682 586.431 262.447 588.241C263.046 590.012 263.294 590.422 264.238 592.063C263.058 593.536 262.906 593.916 261.133 594.651C258.531 587.981 258.33 593.361 252.383 588.662C253.292 587.798 253.503 587.303 254.154 586.234C254.465 584.468 253.692 583.488 252.859 581.84Z"/><path fill="#DBAC6C" d="M241.394 576.198C243.506 577.412 242.957 576.714 243.883 578.74C243.613 581.194 244.038 580.133 242.652 582.085L240.432 581.655C239.329 580.576 239.772 581.197 239.383 579.578C239.96 577.539 239.853 577.575 241.394 576.198Z"/><path fill="#DFB476" d="M224.471 583.068C226.82 583.501 227.467 582.964 229.677 582.039C232.006 584.041 231.576 585.119 233.725 585.845C234.384 585.098 234.54 584.891 235.073 584.05L235.926 584.263C236.577 585.93 236.934 588.259 237.967 589.447C239.391 589.392 238.814 589.69 239.804 588.694C239.846 586.733 239.536 584.548 240.515 583.203C244.423 583.883 243.843 587.853 246.927 589.737C249.038 589.976 248.254 590.004 250.393 588.919L250.846 588.946C250.623 590.347 249.144 591.782 248.159 592.951C249.788 594.148 248.925 593.889 250.743 594.01C253.226 592.383 252.631 591.574 252.383 588.662C258.33 593.361 258.531 587.981 261.133 594.651L260.054 596.521L260.306 597.338C261.916 597.591 262.169 597.276 262.806 598.256C264.049 600.167 264.929 603.412 265.713 605.634C267.083 605.731 266.435 605.809 267.646 605.227L269.092 604.838C271.595 607.687 270.041 609.787 272.359 611.103L272.883 610.691C273.523 610.197 273.911 609.934 274.581 609.505C276.017 610.371 275.986 611.079 276.594 612.994C276.843 615.356 278.171 616.256 279.758 617.887L279.655 618.67L278.94 619.072C275.805 618.107 276.473 615.438 274.434 616.183L272.691 619.287C269.186 620.144 270.943 615.021 266.204 614.753C263.575 611.491 263.91 606.55 260.962 605.044C259.831 607.453 260.733 609.173 259.38 610.778L258.612 610.538C258.352 609.192 258.35 607.812 257.011 607.488C251.046 606.045 249.818 604.707 247.241 598.05C244.946 597.871 244.463 598.25 243.031 597.079C242.62 594.044 244.567 593.984 243.773 592.686C241.905 592.697 241.854 592.579 240.167 593.513L239.722 594.279C236.3 600.096 231.939 594.607 229.176 597.306C228.773 599.061 228.571 599.497 228.838 601.316L229.509 601.804C231.625 601.034 232.816 599.86 234.386 600.06L234.781 601.192C234.121 602.481 233.917 602.461 232.731 603.362L232.883 604.1L235.501 604.939L235.552 605.689L234.187 607.081L234.263 607.789C238.516 608.853 236.597 609.606 238.958 609.848C240.62 605.768 235.664 606.742 243.876 603.754C243.486 605.656 241.538 612.268 242.042 613.127C245.012 612.071 243.385 609.44 246.574 610.653C248.148 611.251 248.047 611.446 248.446 612.5C246.892 615.164 244.341 614.437 244.249 616.269C246.918 617.131 248.964 616.392 250.538 617.482L250.456 618.059C250.365 618.731 250.33 619.158 250.294 619.824C251.619 620.227 251.243 620.142 252.62 620.224L252.86 620.946C251.095 622.116 251.019 621.754 250.349 623.361C251.024 625.357 250.994 625.396 253.329 625.192C257.049 627.352 255.438 627.825 257.642 629.716C250.734 626.886 243.471 623.498 236.605 620.46C229.977 617.527 217.776 613.089 211.782 609.415C212.508 608.317 212.34 608.705 212.676 607.507C211.642 606.808 211.954 607.081 211.11 606.06C211.481 604.312 211.049 604.982 212.315 603.9C214.648 603.911 214.898 605.242 216.404 605.295C214.65 599.507 217.6 601.705 217.227 599.625C215.635 590.754 213.872 588.759 224.471 583.068Z"/><path fill="#DFB476" d="M285.511 611.396C286.391 613.3 287.313 615.939 288.909 617.11C290.812 617.283 290.573 617.114 292.515 615.758C294.363 619.17 291.135 621.636 289.291 624.263C292.006 622.774 295.24 620.413 297.473 619.395C298.875 619.948 298.222 619.61 299.299 621.048C298.448 622.714 298.006 623.287 297.876 625.175L298.332 626.096C300.103 626.414 300.865 625.943 302.497 624.809L303.249 624.277C305.853 625.264 309.143 626.305 310.85 628.535L311.139 630.759L311.993 630.794L312.866 628.777L313.543 628.803C314.046 631.793 313.365 631.223 314.948 633.248C316.547 634.244 317.798 635.045 319.319 636.152C319.343 636.853 319.361 637.554 319.372 638.255L320.222 638.857C321.41 638.18 321.736 637.513 322.521 636.403L323.292 636.195C324.201 637.297 323.925 636.848 324.377 638.229C327.038 638.558 327.106 637.695 329.833 638.789L330.307 639.077C333.915 641.321 334.247 642.603 338.531 641.757L339.228 642.39L339.202 642.659C341.672 642.751 344.75 642.652 347.401 642.715C347.518 645.226 345.821 643.26 346.994 645.283L348.212 645.037L349.028 647.365L349.579 647.671C350.794 648.192 352.293 648.779 353.439 649.383C354.725 650.708 358.863 652.246 360.745 653.073L364.546 651.504C364.384 654.759 362.936 657.972 364.592 660.563C366.241 660.533 368.324 658.583 369.604 657.374C375.231 661.389 380.541 659.498 381.59 663.762L382.021 665.791C384.508 666.557 384.183 664.919 388.555 666.909L390.37 667.643C392.918 667.302 395.046 667.469 396.252 670.136C401.094 672.477 397.85 673.44 404.782 672.716C404.865 673.552 404.972 674.386 405.101 675.216L405.66 675.387L407.242 673.904L407.859 674.274C407.761 674.886 407.621 675.997 407.483 676.551C408.965 678.459 411.572 682.094 413.317 683.425C414.344 682.541 413.852 683.005 414.795 682.035C417.262 682.574 417.386 684.541 418.494 684.584C422.275 684.73 423.593 681.887 427.41 684.102L428.229 685.555L428.003 686.213C426.59 685.69 426.196 685.432 424.701 685.246C424.309 686.458 425.471 689.792 426.445 690.637L427.463 690.606C428.099 689.361 427.999 688.752 428.079 687.342C429.771 687.442 431.136 689.444 433.503 689.135C434.289 687.466 434.29 688.256 433.737 686.696C432.812 686.426 431.911 686.17 431.05 685.732C432.185 684.56 431.498 685.025 433.512 684.813C436.839 686.542 436.724 689.785 437.369 693.311C439.067 691.599 438.988 691.057 440.86 690.781L442.225 691.645C443.273 690.713 443.254 690.688 444.024 689.5L444.954 689.243C446.666 692.463 443.978 694.437 447.841 695.973C452.46 695.079 451.543 690.323 455.918 690.119C456.111 691.321 456.316 692.856 456.556 694.02C458.028 695.834 458.514 695.703 460.978 695.556C462.82 696.411 464.115 697.599 465.699 698.866C471.688 692.048 469.926 696.383 475.463 695.684C477.674 696.375 477.027 695.712 477.939 697.254C477.626 699.224 477.288 699.075 478.115 700.321C480.25 700.925 480.339 700.687 481.738 698.703C481.961 700.189 482.214 702.355 482.647 703.715C480.931 704.787 481.496 704.075 480.753 705.805C481.202 708.195 481.936 709.364 481 711.051L479.264 712.025L479.02 713.042L479.561 713.883C481.611 713.789 481.814 712.974 483.541 712.377C483.025 714.462 483.299 715.436 483.59 717.578L483.96 717.912L485.102 716.651C487.032 717.323 487.39 718 487.745 720.088C485.705 723.625 472.445 725.501 468.287 724.79C467.116 724.59 466.154 724.381 464.936 724.463C463.882 724.22 462.496 723.648 461.445 723.262C461.037 720.909 455.988 718.977 453.905 717.959C451.897 717.07 449.63 715.811 447.657 714.781C434.245 708.372 420.224 702.856 406.902 696.018C400.682 692.826 392.915 690.485 386.377 687.392C367.857 678.63 349.441 669.619 330.283 662.312L332.023 659.85C334.005 659.436 334.555 660.072 336.792 660.896C337.937 659.84 337.452 660.445 337.945 658.807C337.681 657.205 336.953 656.828 335.715 655.708L335.233 655.28C335.895 654.422 336.991 655.16 338.206 653.08L337.783 651.937C337.002 651.761 336.287 651.658 335.493 651.596L334.678 650.22L333.816 650.254C333.525 651.425 333.512 651.621 332.978 652.686C330.17 652.336 330.575 648.995 326.141 649.463C324.755 650.96 325.138 651.03 324.656 653.405C322.261 652.68 322.414 647.045 320.539 644.606C316.8 644.039 314.302 647.27 311.288 646.994C311.024 645.979 310.894 644.971 310.783 643.929C308.748 642.67 308.959 644.614 306.956 643.396C307.153 641.592 307.489 640.618 306.545 639.11C302.784 636.566 303.141 639.52 300.106 639.627C296.588 632.824 291.351 639.954 288.126 634.961L288.974 632.733L288.533 631.969C287.501 632.059 286.47 632.168 285.442 632.296L285.271 631.447C286.725 629.932 287.23 629.51 288.043 627.618L288.686 626.189C285.051 623.59 283.19 626.789 280.113 628.611C278.731 627.893 279.368 628.333 278.473 626.63C279.181 625.041 280.626 624.78 282.564 623.39C286.323 613.996 282.482 619.529 280.508 614.79C283.396 614.533 283.294 614.168 285.091 611.926L285.511 611.396Z"/><path fill="#DBAC6C" d="M447.657 714.781C449.815 711.585 451.712 708.322 454.925 706.178L456.243 706.05C457.016 707.035 456.844 706.637 457.018 707.85L459.032 708.268C459.707 709.705 459.617 708.936 458.995 710.672C457.865 711.503 457.474 711.336 456.044 711.35C454.622 713.445 456.308 714.819 453.905 717.959C451.897 717.07 449.63 715.811 447.657 714.781Z"/><path fill="#D49F59" d="M390.37 667.643C392.918 667.302 395.046 667.469 396.252 670.136C395.239 671.674 394.244 673.223 393.266 674.784C393.163 676.626 393.174 676.022 394.526 677.906L394.14 678.587C392.087 679.098 392.999 679.21 391.266 678.688C390.155 676.07 389.866 675.651 387.56 673.986C388.509 671.336 389.111 670.106 390.37 667.643Z"/><path fill="#D49F59" d="M339.202 642.659C341.672 642.751 344.75 642.652 347.401 642.715C347.518 645.226 345.821 643.26 346.994 645.283L348.212 645.037L349.028 647.365C344.465 647.041 346.702 648.703 342.996 651.569C341.61 650.651 343.176 649.049 342.758 648.715C340.95 647.27 337.632 646.069 336.475 644.028C337.282 642.825 337.368 643.158 339.202 642.659Z"/><path fill="#D49F59" d="M478.722 703.743C479.038 703.859 479.453 704.155 479.759 704.346C479.641 706.008 478.084 707.594 476.987 709.003C476.328 708.748 476.634 708.975 476.228 708.147C476.781 706.034 477.36 705.539 478.722 703.743Z"/><path fill="#C38D44" d="M324.006 606.88C341.815 611.123 366.153 624.775 383.695 631.975C410.834 643.114 438.012 654.52 465.009 665.978C471.879 668.894 495.482 680.215 502.272 681.405C503.995 682.1 508.236 683.648 509.611 684.329C505.55 685.528 495.506 677.565 492.973 681.123C493.072 682.918 493.174 683.691 494.123 685.332L493.521 685.717C492.165 682.479 493.501 680.163 490.247 679.041C488.542 679.423 488.114 679.424 486.632 680.426C486.588 680.639 486.094 683.03 486.093 683.031C484.69 685.43 480.897 686.308 481.91 689.005L481.493 690.324L480.538 690.724C477.514 689.459 477.554 688.356 477.313 685.272L476.448 684.164C473.639 686.262 476.334 690.613 473.187 693.98L475.463 695.684C469.926 696.383 471.688 692.048 465.699 698.866C464.115 697.599 462.82 696.411 460.978 695.556C458.514 695.703 458.028 695.834 456.556 694.02C456.316 692.856 456.111 691.321 455.918 690.119L456.747 690.128L457.564 689.276C457.736 687.521 457.851 688.359 457.117 686.683C456.97 684.471 456.783 683.759 457.373 681.684L458.09 680.956C460.236 681.382 463.941 684.804 467.012 685.61C469.597 682.345 471.441 684.909 473.955 680.363L473.719 679.677C471.951 679.697 472.444 679.881 470.899 679.316C471.163 678.545 471.421 677.771 471.671 676.994C469.733 675.531 459.544 682.711 454.731 671.181C453.728 669.527 454.392 670.036 452.937 669.267C447.93 670.665 450.608 664.446 446.364 664.238C444.978 665.659 444.995 665.838 444.363 667.786C443.847 667.909 444.181 667.886 443.392 667.524C443.296 666.048 443.381 665.769 442.756 664.41L441.938 664.393L440.705 666.705L439.78 666.921L438.768 666.156L439.105 662.822C437.346 662.443 435.635 661.52 433.957 660.761L433.185 661.348C431.548 660.749 431.725 659.498 430.44 657.924C428.717 658.547 429.516 658.599 427.954 657.931C426.753 657.782 427.323 657.658 426.26 658.369C426.278 658.99 426.3 659.527 426.348 660.15L426.391 660.66C424.506 661.149 421.905 660.81 420.142 659.901C420.699 657.998 423.073 659.453 424.38 656.496C423.88 654.46 424.346 655.343 422.865 653.783L421.57 654.109L419.578 652.421L419.331 651.864C417.409 650.596 413.92 649.797 411.434 648.733C409.951 650.281 409.073 651.703 407.051 651.868C404.984 652.612 403.104 653.553 401.118 654.489C400.07 654.924 400.139 654.883 399 654.771L397.768 652.902L396.957 652.837C395.92 653.897 395.534 654.24 394.363 655.15C392.581 655.267 393.346 655.513 391.971 654.446L390.095 652.992C389.028 651.162 387.214 650.05 385.13 650.573C384.641 648.701 385.074 649.526 383.678 648.061C382.86 645.847 382.463 644.443 381.137 642.463C379.484 641.513 380.24 641.688 377.909 642.313C376.161 641.242 375.767 640.357 375.78 638.425L374.836 638.223C373.831 638.801 373.674 638.797 372.548 639.068C370.993 637.448 371.091 637.515 369.006 636.681C368.792 636.853 368.972 636.741 368.242 637.007C367.883 634.895 367.543 632.779 367.224 630.66L366.498 630.281C365.038 631.234 364.437 632.534 363.493 634.032C361.425 633.98 357.554 632.45 355.429 631.723C354.445 634.416 356.14 634.876 355.027 637.224C353.88 637.199 354.36 637.333 353.554 636.974L352.243 636.523C349.184 637.719 348.939 637.426 345.528 636.852C342.689 635.449 343.114 635.172 341.474 632.566C340.113 632.237 339.855 632.204 338.62 631.493L337.758 630.986C336.427 631.307 336.486 631.368 335.161 631.116C334.344 629.884 333.881 629.308 332.96 628.19C333.762 626.325 334.141 627.656 334.602 624.877L334.066 624.297L331.825 624.562L331.315 623.97C332.005 622.182 332.197 621.575 332.214 619.621C334.316 618.696 335.707 618.596 335.847 616.201L334.881 615.584C333.044 615.514 333.04 615.662 331.471 616.523C331.402 616.574 331.333 616.625 331.264 616.676C327.736 617.359 327.236 622.535 322.938 623.572L322.476 622.785C322.838 621.544 322.889 621.595 322.757 620.328C321.198 619.884 321.701 620.209 320.54 619.192C321.501 615.802 322.973 613.239 323.663 610.15C323.527 610.755 323.986 607.002 324.006 606.88Z"/><path fill="#D49F59" d="M354.222 625.716L356.842 627.1L357.832 626.889L359.566 627.847L359.618 628.804C358.156 629.992 356.379 630.765 355.429 631.723C354.445 634.416 356.14 634.876 355.027 637.224C353.88 637.199 354.36 637.333 353.554 636.974L352.243 636.523C349.184 637.719 348.939 637.426 345.528 636.852C342.689 635.449 343.114 635.172 341.474 632.566C340.113 632.237 339.855 632.204 338.62 631.493L337.758 630.986C340.059 629.87 341.443 628.645 343.749 629.899C344.435 631.093 344.68 631.745 345.797 632.571C347.72 632.106 348.708 630.697 350.339 629.185L354.222 625.716Z"/><path fill="#DBAC6C" d="M457.117 686.683C456.97 684.471 456.783 683.759 457.373 681.684L458.09 680.956C460.236 681.382 463.941 684.804 467.012 685.61C469.105 686.53 470.398 686.979 472.241 688.402L472.441 689.858C470.968 690.233 469.769 690.561 468.321 691.012L467.836 693.08L466.88 693.346C466.261 692.149 466.392 691.135 466.372 689.771C464.611 687.447 459.056 690.95 457.588 692.329L456.556 694.02C456.316 692.856 456.111 691.321 455.918 690.119L456.747 690.128L457.564 689.276C457.736 687.521 457.851 688.359 457.117 686.683Z"/><path fill="#D49F59" d="M383.678 648.061C385.254 643.176 386.1 644.095 389.516 639.572L390.421 639.454C392.224 642.679 388.293 644.487 388.446 647.183C389.699 647.289 389.905 647.245 391.166 647.097C393.163 648.812 392.418 652.04 391.971 654.446L390.095 652.992C389.028 651.162 387.214 650.05 385.13 650.573C384.641 648.701 385.074 649.526 383.678 648.061Z"/><path fill="#B18E6F" d="M433.957 660.761C434.144 658.445 433.719 659.361 434.837 657.705C437.123 657.571 437.814 658.958 439.662 659.698C441.338 660.369 441.772 656.681 443.886 660.292C443.443 661.717 443.082 661.536 441.499 662.61C440.619 662.623 439.943 662.538 439.105 662.822C437.346 662.443 435.635 661.52 433.957 660.761Z"/><path fill="#B18E6F" d="M407.051 651.868C406.006 650.403 406.351 651.245 406.406 649.115C405.404 647.613 404.369 645.633 404.31 643.8L405.122 643.658C407.722 644.9 409.333 646.732 411.434 648.733C409.951 650.281 409.073 651.703 407.051 651.868Z"/><path fill="#B18E6F" d="M354.222 625.716C352.474 623.448 351.831 623.281 349.169 622.277L349.329 621.587C352.18 621.111 354.831 622.851 357.36 624.187C358.359 625.694 358.106 624.848 357.832 626.889L356.842 627.1L354.222 625.716Z"/><path fill="#D49F59" d="M369.006 636.681C369.89 633.444 373.484 633.623 376.65 632.389C374.934 634.483 373.007 636.384 372.548 639.068C370.993 637.448 371.091 637.515 369.006 636.681Z"/><path fill="#B18E6F" d="M419.331 651.864C420.712 649.835 419.842 650.5 421.809 649.52C423.659 649.637 422.901 649.302 424.227 650.394C424.478 652.189 424.282 652.379 422.865 653.783L421.57 654.109L419.578 652.421L419.331 651.864Z"/><path fill="#B18E6F" d="M427.954 657.931C427.649 656.84 427.624 656.306 427.468 655.165C428.104 653.736 427.596 654.21 428.981 653.637L430.13 654.255C431.061 656.294 430.856 655.459 430.44 657.924C428.717 658.547 429.516 658.599 427.954 657.931Z"/><path fill="#D49F59" d="M457.588 692.329L458.444 692.635C459.696 693.072 460.159 693.113 461.463 693.292C461.375 694.505 461.49 694.086 460.946 695.21L460.978 695.556C458.514 695.703 458.028 695.834 456.556 694.02L457.588 692.329Z"/><path fill="#D49F59" d="M477.146 681.045C479.835 681.401 481.535 680.95 481.841 683.752C480.232 683.966 479.385 684.224 477.835 683.723C476.8 682.286 477.145 683.108 477.146 681.045Z"/><path fill="#D49F59" d="M411.434 648.733C413.92 649.797 417.409 650.596 419.331 651.864L419.578 652.421L421.57 654.109L422.865 653.783C424.346 655.343 423.88 654.46 424.38 656.496C423.073 659.453 420.699 657.998 420.142 659.901C421.905 660.81 424.506 661.149 426.391 660.66L426.348 660.15C426.3 659.527 426.278 658.99 426.26 658.369C427.323 657.658 426.753 657.782 427.954 657.931C429.516 658.599 428.717 658.547 430.44 657.924C431.725 659.498 431.548 660.749 433.185 661.348L433.957 660.761C435.635 661.52 437.346 662.443 439.105 662.822L438.768 666.156L439.78 666.921L440.705 666.705L441.938 664.393L442.756 664.41C443.381 665.769 443.296 666.048 443.392 667.524C444.181 667.886 443.847 667.909 444.363 667.786C444.995 665.838 444.978 665.659 446.364 664.238C450.608 664.446 447.93 670.665 452.937 669.267C454.392 670.036 453.728 669.527 454.731 671.181C459.544 682.711 469.733 675.531 471.671 676.994C471.421 677.771 471.163 678.545 470.899 679.316C472.444 679.881 471.951 679.697 473.719 679.677L473.955 680.363C471.441 684.909 469.597 682.345 467.012 685.61C463.941 684.804 460.236 681.382 458.09 680.956L457.373 681.684C456.783 683.759 456.97 684.471 457.117 686.683C457.851 688.359 457.736 687.521 457.564 689.276L456.747 690.128L455.918 690.119C451.543 690.323 452.46 695.079 447.841 695.973C443.978 694.437 446.666 692.463 444.954 689.243L444.024 689.5C443.254 690.688 443.273 690.713 442.225 691.645L440.86 690.781C438.988 691.057 439.067 691.599 437.369 693.311C436.724 689.785 436.839 686.542 433.512 684.813C431.498 685.025 432.185 684.56 431.05 685.732C431.911 686.17 432.812 686.426 433.737 686.696C434.29 688.256 434.289 687.466 433.503 689.135C431.136 689.444 429.771 687.442 428.079 687.342C427.999 688.752 428.099 689.361 427.463 690.606L426.445 690.637C425.471 689.792 424.309 686.458 424.701 685.246C426.196 685.432 426.59 685.69 428.003 686.213L428.229 685.555L427.41 684.102C423.593 681.887 422.275 684.73 418.494 684.584C417.386 684.541 417.262 682.574 414.795 682.035C413.852 683.005 414.344 682.541 413.317 683.425C411.572 682.094 408.965 678.459 407.483 676.551C410.137 675.417 413.4 675.991 416.468 676.127C416.492 674.096 416.298 671.799 417.124 670.009L417.851 669.715C418.853 671.128 418.583 673.691 418.725 675.668C421.662 675.354 422.869 673.896 424.646 674.698L425.505 676.501L426.221 676.605L427.729 675.349C429.276 675.847 428.715 675.374 429.469 676.811L429.268 679.357L429.986 679.965L432.251 679.425C434.065 680.98 432.056 682.079 434.237 681.888C437.206 681.628 436.469 680.441 439.006 681.63C443.871 687.159 438.398 692.51 451.756 683.357C447.704 678.28 447.455 680.972 441.768 679.788C440.699 679.565 436.702 676.307 435.565 675.406C433.71 675.222 434.659 676.843 432.283 677.593C431.569 676.317 432.344 674.743 432.8 673.019L432.269 672.631C426.985 674.105 428.559 673.731 425.697 669.833L425.145 670.047C425.413 671.729 425.672 671.664 425.153 673.07L424.236 673.104C421.06 670.819 424.246 668.761 418.917 666.884C417.24 666.951 417.312 667.036 415.804 666.361C414.606 664.406 415.272 663.778 414.766 661.653L413.985 661.579C411.511 661.846 409.923 662.171 408.108 663.789C407.656 664.941 407.831 664.972 407.05 665.75C405.998 664.969 405.974 664.828 404.735 664.498C403.026 666.326 404.987 667.066 403.505 668.533C402.861 667.99 402.569 667.583 402.662 666.484C402.938 663.215 399.816 662.485 400.383 659.579C401.66 658.354 402.504 658.286 404.204 657.808C403.529 656.894 401.972 655.373 401.118 654.489C403.104 653.553 404.984 652.612 407.051 651.868C409.073 651.703 409.951 650.281 411.434 648.733Z"/><path fill="#C38D44" d="M419.578 652.421L421.57 654.109C420.078 655.68 419.426 656.769 417.441 657.223L416.802 656.627C417.219 654.543 418.033 654.185 419.578 652.421Z"/><path fill="#DBAC6C" d="M453.967 687.503C451.479 688.237 452.561 688.94 450.384 688.178L450.043 687.202C451.616 684.595 452.516 685.09 455.086 685.334L453.967 687.503Z"/><path fill="#D49F59" d="M314.948 633.248C316.484 632.141 316.149 631.978 317.605 632.109L318.571 633.608L319.46 633.748C319.949 633.123 321.021 631.376 321.705 631.369C324.772 631.34 329.687 634.04 330.71 636.971C330.321 638.013 330.438 637.881 329.833 638.789C327.106 637.695 327.038 638.558 324.377 638.229C323.925 636.848 324.201 637.297 323.292 636.195L322.521 636.403C321.736 637.513 321.41 638.18 320.222 638.857L319.372 638.255C319.361 637.554 319.343 636.853 319.319 636.152C317.798 635.045 316.547 634.244 314.948 633.248Z"/><path fill="#D49F59" d="M381.59 663.762C383.998 662.474 382.654 662.753 385.196 663.203C386.476 662.743 387.551 662.356 388.42 662.044C389.075 663.525 388.579 664.988 388.555 666.909C384.183 664.919 384.508 666.557 382.021 665.791L381.59 663.762Z"/><path fill="#C38D44" d="M385.13 650.573C387.214 650.05 389.028 651.162 390.095 652.992C389.764 655.397 390.867 656.389 390.291 658.535C388.951 658.331 388.772 658.116 387.551 657.469C386.993 655.743 388.908 656.322 388.859 653.634C386.693 651.624 386.934 653.967 385.101 652.275L385.13 650.573Z"/><path fill="#D49F59" d="M349.579 647.671C349.497 646.208 349.624 646.24 350.285 644.89C352.446 644.039 354.456 644.923 355.417 647.026C354.874 648.442 354.663 648.399 353.439 649.383C352.293 648.779 350.794 648.192 349.579 647.671Z"/><path fill="#DBAC6C" d="M273.083 678.375C276.286 679.448 280.261 681.457 283.109 682.138C294.488 687.711 310.183 693.666 320.414 699.106L326.097 701.675C345.234 709.279 362.496 717.829 381.092 726.037L410.12 739.087C417.994 742.537 426.149 745.694 433.747 749.668C442.458 753.553 451.06 757.568 459.899 761.148L460.919 761.463C464.644 763.421 468.296 764.514 472.524 764.12L473.419 764.749L476.987 766.344C476.313 767.974 475.457 769.244 475.708 770.76C476.952 769.669 476.704 769.648 478.174 769.152C483.411 770.487 488.87 768.958 493.982 767.665C476.954 777.376 473.123 771.205 457.45 774.367C448.622 770.827 439.191 766.498 430.44 762.683C425.829 760.672 417.622 757.191 413.381 754.876C408.162 753.078 396.253 747.239 390.745 744.757L347.836 725.665C324.437 716.062 301.304 705.032 278.052 695.033C275.405 693.895 272.577 692.59 270.033 691.253L268.121 690.579C266.442 688.451 262.209 686.416 262.032 683.489C263.482 681.968 266.7 681.929 268.674 681.95C269.023 680.634 269.09 679.752 270.084 678.85C271.486 678.895 271.776 678.878 273.083 678.375Z"/><path fill="#D49F59" d="M433.747 749.668C442.458 753.553 451.06 757.568 459.899 761.148C459.372 762.951 457.76 766.273 458.669 767.799L460.566 768.023L460.716 768.629L458.956 770.658C455.298 771.231 443.294 762.933 439.408 761.056C435.167 759.009 423.62 757.931 422.996 752.41C424.334 749.728 428.595 753.656 433.747 749.668Z"/><path fill="#D49F59" d="M347.836 725.665C351.879 723.952 353.143 724.69 357.423 726.643C365.697 730.42 408.141 748.456 412.861 752.843L413.381 754.876C408.162 753.078 396.253 747.239 390.745 744.757L347.836 725.665Z"/><path fill="#D49F59" d="M268.121 690.579C266.442 688.451 262.209 686.416 262.032 683.489C263.482 681.968 266.7 681.929 268.674 681.95L268.263 682.786C267.633 684.042 267.106 684.699 266.256 685.798C268.214 688.011 275.21 689.925 276.006 691.334C274.09 691.583 270.712 689.593 269.1 688.565L269.03 688.607L268.931 689.349C269.745 690.272 269.78 690.06 270.033 691.253L268.121 690.579Z"/><path fill="#D49F59" d="M326.097 701.675L325.226 703.169C322.134 704.811 322.023 705.937 319.193 707.421L318.367 707.135C317.893 705.296 319.041 700.549 320.414 699.106L326.097 701.675Z"/><path fill="#D49F59" d="M396.936 735.085C398.846 737.465 399.466 738.06 400.579 740.953C402.687 742.938 404.439 742.692 407.171 742.816C407.381 744.27 407.429 744.211 407.119 745.628C404.791 746.536 402.828 745.384 400.467 744.399C397.926 743.233 396.518 742.278 394.212 740.775L396.936 735.085Z"/><path fill="#B18E6F" d="M240.579 567.396L241.088 567.397C242.741 568.87 244.102 570.104 245.638 571.696C241.213 573.893 228.234 580.187 224.471 583.068C213.872 588.759 215.635 590.754 217.227 599.625C217.6 601.705 214.65 599.507 216.404 605.295C214.898 605.242 214.648 603.911 212.315 603.9C211.049 604.982 211.481 604.312 211.11 606.06C211.954 607.081 211.642 606.808 212.676 607.507C212.34 608.705 212.508 608.317 211.782 609.415C217.776 613.089 229.977 617.527 236.605 620.46C243.471 623.498 250.734 626.886 257.642 629.716C280.664 641.666 306.869 650.524 330.283 662.312C349.441 669.619 367.857 678.63 386.377 687.392C392.915 690.485 400.682 692.826 406.902 696.018C420.224 702.856 434.245 708.372 447.657 714.781C449.63 715.811 451.897 717.07 453.905 717.959C455.988 718.977 461.037 720.909 461.445 723.262C462.496 723.648 463.882 724.22 464.936 724.463L465.288 727.807C462.913 726.719 461.843 726.158 459.273 725.581L458.104 725.248C449.68 723.094 438.238 720.552 430.653 716.823C428.678 713.786 425.628 714.006 424.145 710.988L424.045 709.575C418.393 707.228 411.299 703.642 405.591 700.996C393.826 695.531 382.027 690.139 370.194 684.823C362.796 681.07 353.78 677.406 346.08 674.109C332.362 668.3 318.679 662.412 305.029 656.445L272.553 641.995C266.813 639.418 255.64 634.124 249.987 632.748C247.645 631.527 245.235 630.432 242.839 629.323C230.994 623.84 219.458 617.688 207.515 612.419C204.388 610.853 197.099 606.701 194.144 607.349L193.997 606.858C189.988 605.203 189.702 606.272 187.037 605.402C191.337 597.127 216.915 582.999 225.598 577.256C229.001 575.006 237.166 569.48 240.579 567.396Z"/><path fill="#ECE4D9" d="M461.445 723.262C453.719 720.476 437.948 712.636 429.68 708.913L360.925 678.004C309.361 654.857 257.239 633.087 206.033 609.148C203.25 607.847 196.809 605.706 194.825 603.689L195.118 602.845C198.982 600.868 208.341 607.274 211.782 609.415C217.776 613.089 229.977 617.527 236.605 620.46C243.471 623.498 250.734 626.886 257.642 629.716C280.664 641.666 306.869 650.524 330.283 662.312C349.441 669.619 367.857 678.63 386.377 687.392C392.915 690.485 400.682 692.826 406.902 696.018C420.224 702.856 434.245 708.372 447.657 714.781C449.63 715.811 451.897 717.07 453.905 717.959C455.988 718.977 461.037 720.909 461.445 723.262Z"/><path fill="#CECBCB" d="M424.045 709.575C430.562 711.993 438.417 716.098 444.915 718.993C447.644 720.21 455.836 723.88 458.104 725.248C449.68 723.094 438.238 720.552 430.653 716.823C428.678 713.786 425.628 714.006 424.145 710.988L424.045 709.575Z"/><path fill="#DFB476" d="M213.085 591.903C216.331 592.652 216.728 599.525 213.769 601.562C210.829 603.587 209.456 603.095 206.257 602.923C204.219 601.769 203.625 601.518 203.271 599.297C204.461 596.168 209.95 593.695 213.085 591.903Z"/><path fill="#C2334C" d="M205.635 651.605L209.006 648.792C208.727 651.382 207.835 655.035 211.339 655.666C211.62 656.3 211.825 656.816 212.075 657.46L213.507 657.619C214.766 658.747 214.862 658.867 216.399 659.745L217.268 659.48L217.75 658.305C216.569 656.972 216.736 657.558 216.42 656.029L217.513 655.211C219.253 654.495 219.854 654.051 221.704 654.388C222.485 655.638 222.835 656.917 224.053 657.658C224.89 656.945 224.439 657.185 225.371 656.877C226.934 658.163 225.956 657.933 226.978 659.499C228.212 658.36 229.545 657.688 230.995 656.839L233.449 657.749L230.528 660.837C228.84 662.256 222.692 668.414 221.544 670.169C214.545 677.137 206.566 685.094 200.177 692.568C196.617 696.683 192.247 703.599 186.267 700.876C185.529 697.63 185.849 696.508 186.391 693.31C183.225 693.971 180.045 694.564 176.854 695.088C174.516 695.867 166.945 696.972 164.371 696.376C164.067 692.447 198.826 662.142 197.731 657.456C198.938 657.072 200.042 656.796 201.264 656.487L205.23 652.604L205.635 651.605Z"/><path fill="#B61A34" d="M230.995 656.839L233.449 657.749L230.528 660.837C228.84 662.256 222.692 668.414 221.544 670.169C214.545 677.137 206.566 685.094 200.177 692.568C196.617 696.683 192.247 703.599 186.267 700.876C185.529 697.63 185.849 696.508 186.391 693.31C189.357 687.54 198.153 685.424 201.572 681.886C206.009 677.295 209.66 672.032 214.313 667.109C215.111 666.991 215.903 666.833 216.686 666.635C219.224 665.974 225.657 661.803 226.978 659.499C228.212 658.36 229.545 657.688 230.995 656.839Z"/><path fill="#D95A71" d="M205.23 652.604C204.782 657.338 204.47 658.174 201.647 661.999C198.663 662.949 196.302 664.814 196.33 668.196C196.378 673.91 187.222 676.485 189.441 682.134C187.881 686.577 179.376 690.445 176.854 695.088C174.516 695.867 166.945 696.972 164.371 696.376C164.067 692.447 198.826 662.142 197.731 657.456C198.938 657.072 200.042 656.796 201.264 656.487L205.23 652.604Z"/><path fill="#D34F67" d="M205.635 651.605L209.006 648.792C208.727 651.382 207.835 655.035 211.339 655.666C211.62 656.3 211.825 656.816 212.075 657.46C211.417 659.421 210.336 661.919 208.493 662.948C206.804 663.193 206.885 663.199 205.207 662.901C203.998 664.207 203.182 665.355 201.565 666.041L200.765 665.734C200.473 663.569 200.529 664.293 201.647 661.999C204.47 658.174 204.782 657.338 205.23 652.604L205.635 651.605Z"/><defs><linearGradient id="gradient_4" gradientUnits="userSpaceOnUse" x1="274.4541" y1="664.2135" x2="235.77165" y2="650.6615"><stop offset="0" stop-color="#B4917E"/><stop offset="1" stop-color="#D8C5B7"/></linearGradient></defs><path fill="url(#gradient_4)" d="M252.506 642.16L252.874 642.3C257.425 652.253 264.305 660.939 269.19 670.791C270.308 673.046 272.287 676.093 273.083 678.375C271.776 678.878 271.486 678.895 270.084 678.85C269.09 679.752 269.023 680.634 268.674 681.95C266.7 681.929 263.482 681.968 262.032 683.489C262.209 686.416 266.442 688.451 268.121 690.579C266.681 690.077 265.571 689.502 264.212 688.839C262.137 687.083 241.892 678.752 238.452 677.615C233.512 675.13 228.383 673.359 223.348 670.773L221.544 670.169C222.692 668.414 228.84 662.256 230.528 660.837L233.449 657.749C239.18 651.511 243.701 648.071 250.633 643.388L252.506 642.16Z"/><defs><linearGradient id="gradient_5" gradientUnits="userSpaceOnUse" x1="259.37057" y1="669.4137" x2="248.41916" y2="683.31458"><stop offset="0" stop-color="#744025"/><stop offset="1" stop-color="#955C33"/></linearGradient></defs><path fill="url(#gradient_5)" d="M230.528 660.837C234.218 662.44 242.202 664.125 244.732 666.228C248.849 667.64 252.379 668.93 256.402 670.583C260.316 672.139 266.207 674.374 269.574 676.682L273.083 678.375C271.776 678.878 271.486 678.895 270.084 678.85C269.09 679.752 269.023 680.634 268.674 681.95C266.7 681.929 263.482 681.968 262.032 683.489C262.209 686.416 266.442 688.451 268.121 690.579C266.681 690.077 265.571 689.502 264.212 688.839C262.137 687.083 241.892 678.752 238.452 677.615C233.512 675.13 228.383 673.359 223.348 670.773L221.544 670.169C222.692 668.414 228.84 662.256 230.528 660.837Z"/><path fill="#D49F59" d="M230.528 660.837C234.218 662.44 242.202 664.125 244.732 666.228C247.286 668.07 248.496 668.531 251.313 669.763C246.023 671.307 237.27 675.244 232.021 673.456C228.444 672.238 227.438 671.185 223.348 670.773L221.544 670.169C222.692 668.414 228.84 662.256 230.528 660.837Z"/><path fill="#664430" d="M269.574 676.682C265.623 676.237 259 676.078 256.244 673.61C255.651 671.699 255.689 672.675 256.402 670.583C260.316 672.139 266.207 674.374 269.574 676.682Z"/><path fill="#272525" d="M197.731 657.456C192.272 655.04 187.691 645.883 185.877 640.484C182.234 629.645 181.87 615.799 187.037 605.402C189.702 606.272 189.988 605.203 193.997 606.858L194.144 607.349C197.099 606.701 204.388 610.853 207.515 612.419C201.915 614.871 201.674 616.758 201.966 622.664C202.591 630.738 202.839 644.511 205.635 651.605L205.23 652.604L201.264 656.487C200.042 656.796 198.938 657.072 197.731 657.456Z"/><path fill="#B18E6F" d="M194.144 607.349C197.099 606.701 204.388 610.853 207.515 612.419C201.915 614.871 201.674 616.758 201.966 622.664C202.591 630.738 202.839 644.511 205.635 651.605L205.23 652.604L201.264 656.487C201.11 654.836 200.989 654.438 200.586 652.878C199.687 650.095 197.334 645.335 196.189 642.357C191.648 630.546 191.175 623.222 192.601 611.041L194.144 607.349Z"/><path fill="#CECBCB" d="M194.144 607.349C197.099 606.701 204.388 610.853 207.515 612.419C201.915 614.871 201.674 616.758 201.966 622.664C201.529 619.39 197.922 614.243 196.074 611.262C194.647 610.513 194.193 610.753 192.601 611.041L194.144 607.349Z"/><path fill="#926041" d="M197.731 657.456C192.272 655.04 187.691 645.883 185.877 640.484C182.234 629.645 181.87 615.799 187.037 605.402C189.702 606.272 189.988 605.203 193.997 606.858C186.293 607.003 185.653 621.418 185.917 627.138C186.274 634.904 188.88 644.427 193.655 650.656C196.11 651.803 197.829 652.53 200.586 652.878C200.989 654.438 201.11 654.836 201.264 656.487C200.042 656.796 198.938 657.072 197.731 657.456Z"/><defs><linearGradient id="gradient_6" gradientUnits="userSpaceOnUse" x1="240.5764" y1="633.63684" x2="220.19167" y2="657.82495"><stop offset="0" stop-color="#6C0F14"/><stop offset="1" stop-color="#951928"/></linearGradient></defs><path fill="url(#gradient_6)" d="M231.656 632.43C238.258 634.969 246.28 638.825 252.506 642.16L250.633 643.388C243.701 648.071 239.18 651.511 233.449 657.749L230.995 656.839C229.545 657.688 228.212 658.36 226.978 659.499C225.956 657.933 226.934 658.163 225.371 656.877C224.439 657.185 224.89 656.945 224.053 657.658C222.835 656.917 222.485 655.638 221.704 654.388C219.854 654.051 219.253 654.495 217.513 655.211L216.42 656.029C216.736 657.558 216.569 656.972 217.75 658.305L217.268 659.48L216.399 659.745C214.862 658.867 214.766 658.747 213.507 657.619L212.075 657.46C211.825 656.816 211.62 656.3 211.339 655.666C207.835 655.035 208.727 651.382 209.006 648.792L210.473 647.566C217.768 641.867 223.839 637.364 231.656 632.43Z"/><path fill="#B61A34" d="M230.995 656.839C237.534 650.204 240.002 641.465 250.633 643.388C243.701 648.071 239.18 651.511 233.449 657.749L230.995 656.839Z"/><path fill="#B61A34" d="M209.006 648.792L210.473 647.566C210.205 649.223 209.899 649.908 210.708 651.353C213.087 651.894 213.665 650.514 215.637 651.438L216.073 652.92C217.219 652.275 218.076 651.54 219.103 650.731L218.92 650.875L218.975 651.752C218.258 653.024 217.71 653.756 217.513 655.211L216.42 656.029C216.736 657.558 216.569 656.972 217.75 658.305L217.268 659.48L216.399 659.745C214.862 658.867 214.766 658.747 213.507 657.619L212.075 657.46C211.825 656.816 211.62 656.3 211.339 655.666C207.835 655.035 208.727 651.382 209.006 648.792Z"/><path fill="#CECBCB" d="M249.987 632.748C255.64 634.124 266.813 639.418 272.553 641.995L305.029 656.445C318.679 662.412 332.362 668.3 346.08 674.109C353.78 677.406 362.796 681.07 370.194 684.823L369.248 685.722C349.4 675.857 325.689 668.552 305.102 659.974C302.721 658.982 299.923 655.607 297.821 654.708C290.556 651.601 283.203 647.963 275.838 645.336C275.366 645.389 274.894 645.443 274.423 645.497C269.098 643.648 253.604 636.01 249.987 632.748Z"/><path fill="#CECBCB" d="M252.874 642.3C255.272 642.438 256.45 642.474 258.153 644.42C260.178 646.734 263.222 650.588 263.734 653.578L262.828 654.781C263.577 656.279 266.972 657.506 268.644 658.263C267.8 659.003 268.264 658.666 267.243 659.261C268.086 661.046 271.645 662.503 271.082 663.524C268.475 668.258 276.702 667.328 277.295 669.34L275.093 669.808C275.719 671.112 275.594 670.703 276.934 671.699L275.425 672.449C275.892 673.809 275.881 673.623 276.667 674.882L276.726 676.612C279.362 678.804 281.304 679.064 283.109 682.138C280.261 681.457 276.286 679.448 273.083 678.375C272.287 676.093 270.308 673.046 269.19 670.791C264.305 660.939 257.425 652.253 252.874 642.3Z"/><path fill="#ECE4D9" d="M370.194 684.823C382.027 690.139 393.826 695.531 405.591 700.996C411.299 703.642 418.393 707.228 424.045 709.575L424.145 710.988C422.057 711.137 413.077 707.228 410.511 706.174C407.689 702.875 386.147 699.747 381.511 693.796C382.313 692.987 382.032 693.442 382.402 692.463C381.178 691.551 371.179 686.677 369.248 685.722L370.194 684.823Z"/><path fill="#CECBCB" d="M430.653 716.823C424.917 715.641 416.093 712.217 410.375 710.637C407.788 709.922 386.877 700.668 386.002 699.546C387.876 699.552 395.759 702.839 398.749 703.566C402.785 704.547 406.318 705.387 410.511 706.174C413.077 707.228 422.057 711.137 424.145 710.988C425.628 714.006 428.678 713.786 430.653 716.823Z"/><path fill="#CECBCB" d="M364.922 685.526C367.586 685.988 369.654 687.731 371.76 689.319L370.948 689.094C368.093 688.294 366.378 688.116 364.922 685.526Z"/><defs><linearGradient id="gradient_7" gradientUnits="userSpaceOnUse" x1="662.67303" y1="652.74628" x2="634.38098" y2="611.31396"><stop offset="0" stop-color="#A37F68"/><stop offset="1" stop-color="#C2AC9A"/></linearGradient></defs><path fill="url(#gradient_7)" d="M843.04 511.994C843.031 515.838 842.446 521.55 844.777 524.367C846.129 525.06 846.162 525.111 847.627 525.443C851.422 526.921 859.452 529.17 860.116 533.498C858.962 537.259 857.453 538.746 854.289 541.132L851.174 542.685C849.405 544.11 843.194 548.47 842.38 549.285C840.319 550.639 837.761 552.681 835.418 552.917C832.608 554.029 809.815 569.777 805.239 572.809C780.825 588.962 756.315 604.971 731.71 620.834C683.197 651.619 634.927 682.784 586.903 714.327C584.15 716.15 580.772 717.683 577.979 719.468L539.757 744.366C535.956 746.803 524.157 753.989 521.049 756.511C519.194 758.475 517.984 758.761 516.01 760.234C513.9 761.371 509.911 764.14 508.004 765.692C498.439 772.127 489.213 779.018 477.348 779.697C474.676 779.413 473.509 779.167 470.9 778.494C467.536 778.213 460.566 775.772 457.45 774.367C473.123 771.205 476.954 777.376 493.982 767.665C488.87 768.958 483.411 770.487 478.174 769.152C476.704 769.648 476.952 769.669 475.708 770.76C475.457 769.244 476.313 767.974 476.987 766.344L473.419 764.749L472.524 764.12C468.296 764.514 464.644 763.421 460.919 761.463C461.107 757.76 462.668 729.755 461.634 728.511C460.338 728.937 460.843 728.923 459.536 728.717C459.867 728.246 460.197 727.774 460.527 727.303L459.273 725.581C461.843 726.158 462.913 726.719 465.288 727.807L464.936 724.463C466.154 724.381 467.116 724.59 468.287 724.79C472.445 725.501 485.705 723.625 487.745 720.088C487.39 718 487.032 717.323 485.102 716.651L483.96 717.912L483.59 717.578C483.299 715.436 483.025 714.462 483.541 712.377C481.814 712.974 481.611 713.789 479.561 713.883L479.02 713.042L479.264 712.025L481 711.051C481.936 709.364 481.202 708.195 480.753 705.805C481.496 704.075 480.931 704.787 482.647 703.715C482.214 702.355 481.961 700.189 481.738 698.703C480.339 700.687 480.25 700.925 478.115 700.321C477.288 699.075 477.626 699.224 477.939 697.254C477.027 695.712 477.674 696.375 475.463 695.684L473.187 693.98C476.334 690.613 473.639 686.262 476.448 684.164L477.313 685.272C477.554 688.356 477.514 689.459 480.538 690.724L481.493 690.324L481.91 689.005C480.897 686.308 484.69 685.43 486.093 683.031C486.094 683.03 486.588 680.639 486.632 680.426C488.114 679.424 488.542 679.423 490.247 679.041C493.501 680.163 492.165 682.479 493.521 685.717L494.123 685.332C493.174 683.691 493.072 682.918 492.973 681.123C495.506 677.565 505.55 685.528 509.611 684.329C514.488 685.037 514.15 684.614 518.933 684.535C526.885 684.832 564.893 675.068 573.957 671.531C578.06 669.93 589.698 662.188 596.829 659.307L596.079 660.847L596.832 661.522C601.871 660.804 608.727 651.701 612.386 653.552C610.71 655.671 603.846 657.515 603.652 659.851C626.725 646.509 649.295 631.635 671.791 617.361C687.544 607.365 703.15 598.545 718.515 587.649C734.989 578.32 752.054 566.488 768.294 556.285L789.843 542.779C793.531 540.455 799.697 536.78 802.82 534.022C807.114 532.458 813.618 527.332 817.534 525.186C823.3 522.026 837.299 513.903 843.04 511.994Z"/><defs><linearGradient id="gradient_8" gradientUnits="userSpaceOnUse" x1="654.83148" y1="645.23218" x2="665.19281" y2="660.81152"><stop offset="0" stop-color="#583021"/><stop offset="1" stop-color="#734930"/></linearGradient></defs><path fill="url(#gradient_8)" d="M847.627 525.443C851.422 526.921 859.452 529.17 860.116 533.498C858.962 537.259 857.453 538.746 854.289 541.132L851.174 542.685C849.405 544.11 843.194 548.47 842.38 549.285C840.319 550.639 837.761 552.681 835.418 552.917C832.608 554.029 809.815 569.777 805.239 572.809C780.825 588.962 756.315 604.971 731.71 620.834C683.197 651.619 634.927 682.784 586.903 714.327C584.15 716.15 580.772 717.683 577.979 719.468L539.757 744.366C535.956 746.803 524.157 753.989 521.049 756.511C519.194 758.475 517.984 758.761 516.01 760.234C513.9 761.371 509.911 764.14 508.004 765.692C498.439 772.127 489.213 779.018 477.348 779.697C474.676 779.413 473.509 779.167 470.9 778.494C467.536 778.213 460.566 775.772 457.45 774.367C473.123 771.205 476.954 777.376 493.982 767.665C488.87 768.958 483.411 770.487 478.174 769.152C476.704 769.648 476.952 769.669 475.708 770.76C475.457 769.244 476.313 767.974 476.987 766.344L473.419 764.749C474.036 764.416 473.88 764.46 474.504 764.262C487.132 760.246 498.367 752.926 509.462 745.864C515.187 742.22 520.894 738.547 526.607 734.884L578.121 701.915L757.289 586.898L807.293 554.363C818.228 547.127 828.657 539.742 839.974 533.038L840.984 532.41C842.033 531.396 843.235 530.003 844.239 528.898L844.033 526.425C845.067 525.259 845.513 525.637 847.627 525.443Z"/><defs><linearGradient id="gradient_9" gradientUnits="userSpaceOnUse" x1="661.17914" y1="667.92798" x2="652.95636" y2="654.71649"><stop offset="0" stop-color="#84593D"/><stop offset="1" stop-color="#A86F49"/></linearGradient></defs><path fill="url(#gradient_9)" d="M847.627 525.443C851.422 526.921 859.452 529.17 860.116 533.498C858.962 537.259 857.453 538.746 854.289 541.132L851.174 542.685C849.405 544.11 843.194 548.47 842.38 549.285C840.319 550.639 837.761 552.681 835.418 552.917C832.608 554.029 809.815 569.777 805.239 572.809C780.825 588.962 756.315 604.971 731.71 620.834C683.197 651.619 634.927 682.784 586.903 714.327C584.15 716.15 580.772 717.683 577.979 719.468L539.757 744.366C535.956 746.803 524.157 753.989 521.049 756.511C519.194 758.475 517.984 758.761 516.01 760.234C513.9 761.371 509.911 764.14 508.004 765.692C498.439 772.127 489.213 779.018 477.348 779.697C474.676 779.413 473.509 779.167 470.9 778.494C467.536 778.213 460.566 775.772 457.45 774.367C473.123 771.205 476.954 777.376 493.982 767.665C488.87 768.958 483.411 770.487 478.174 769.152C476.704 769.648 476.952 769.669 475.708 770.76C475.457 769.244 476.313 767.974 476.987 766.344C487.745 764.869 493.125 767.402 503.993 761.22C533.629 744.363 561.835 725.457 590.532 707.136L752.284 603.01C762.348 596.458 774.598 588.516 784.482 582.036C793.963 575.819 823.761 558.302 830.138 551.374C835.013 549.245 840.552 544.892 844.919 541.648C845.278 540.916 846.468 539.878 847.113 539.237C844.026 536.613 843.208 535.602 840.984 532.41C842.033 531.396 843.235 530.003 844.239 528.898L844.033 526.425C845.067 525.259 845.513 525.637 847.627 525.443Z"/><path fill="#A07659" d="M847.627 525.443C851.422 526.921 859.452 529.17 860.116 533.498C857.751 533.671 855.682 535.837 853.968 537.445L852.892 536.919C850.998 538.044 849.633 538.82 847.646 539.759C846.699 541.03 846.946 540.667 845.578 541.636L844.919 541.648C845.278 540.916 846.468 539.878 847.113 539.237C844.026 536.613 843.208 535.602 840.984 532.41C842.033 531.396 843.235 530.003 844.239 528.898L844.033 526.425C845.067 525.259 845.513 525.637 847.627 525.443Z"/><path fill="#926041" d="M844.239 528.898C844.651 531.214 844.21 530.542 845.66 532.095C846.99 532.553 847.5 532.868 848.89 532.761C850.537 534.306 850.814 534.004 850.916 535.644C849.759 536.863 848.214 538.241 847.646 539.759C846.699 541.03 846.946 540.667 845.578 541.636L844.919 541.648C845.278 540.916 846.468 539.878 847.113 539.237C844.026 536.613 843.208 535.602 840.984 532.41C842.033 531.396 843.235 530.003 844.239 528.898Z"/><path fill="#B18E6F" d="M848.89 532.761C851.103 532.485 852.67 532.189 854.489 533.345L854.741 534.368C854.137 535.227 853.521 536.078 852.892 536.919C850.998 538.044 849.633 538.82 847.646 539.759C848.214 538.241 849.759 536.863 850.916 535.644C850.814 534.004 850.537 534.306 848.89 532.761Z"/><path fill="#272525" d="M470.9 778.494C475.675 777.272 480.877 778.113 486.4 776.428C499.042 772.57 509.558 761.607 521.049 756.511C519.194 758.475 517.984 758.761 516.01 760.234C513.9 761.371 509.911 764.14 508.004 765.692C498.439 772.127 489.213 779.018 477.348 779.697C474.676 779.413 473.509 779.167 470.9 778.494Z"/><path fill="#664430" d="M853.968 537.445C855.682 535.837 857.751 533.671 860.116 533.498C858.962 537.259 857.453 538.746 854.289 541.132L851.174 542.685C849.405 544.11 843.194 548.47 842.38 549.285C840.319 550.639 837.761 552.681 835.418 552.917C837.342 550.351 849.22 544.128 851.546 540.663C852.227 539.649 853.208 538.457 853.968 537.445Z"/><path fill="#805B42" d="M840.984 532.41C843.208 535.602 844.026 536.613 847.113 539.237C846.468 539.878 845.278 540.916 844.919 541.648C840.552 544.892 835.013 549.245 830.138 551.374C834.518 546.083 838.876 543.121 844.343 539.093C841.323 536.858 840.967 536.622 839.974 533.038L840.984 532.41Z"/><defs><linearGradient id="gradient_10" gradientUnits="userSpaceOnUse" x1="543.48877" y1="698.42224" x2="524.03259" y2="662.81616"><stop offset="0" stop-color="#9F6D42"/><stop offset="1" stop-color="#E0A748"/></linearGradient></defs><path fill="url(#gradient_10)" d="M596.829 659.307L596.079 660.847L596.832 661.522C601.871 660.804 608.727 651.701 612.386 653.552C610.71 655.671 603.846 657.515 603.652 659.851C601.683 661.646 594.157 666.029 591.403 667.705L564.521 684.015C548.893 693.681 533.337 703.899 517.535 713.313C515.203 714.702 512.455 716.533 510.061 717.717C498.593 725.061 488.537 730.059 474.751 729.439C471.469 729.536 468.579 728.497 465.288 727.807L464.936 724.463C466.154 724.381 467.116 724.59 468.287 724.79C472.445 725.501 485.705 723.625 487.745 720.088C487.39 718 487.032 717.323 485.102 716.651L483.96 717.912L483.59 717.578C483.299 715.436 483.025 714.462 483.541 712.377C481.814 712.974 481.611 713.789 479.561 713.883L479.02 713.042L479.264 712.025L481 711.051C481.936 709.364 481.202 708.195 480.753 705.805C481.496 704.075 480.931 704.787 482.647 703.715C482.214 702.355 481.961 700.189 481.738 698.703C480.339 700.687 480.25 700.925 478.115 700.321C477.288 699.075 477.626 699.224 477.939 697.254C477.027 695.712 477.674 696.375 475.463 695.684L473.187 693.98C476.334 690.613 473.639 686.262 476.448 684.164L477.313 685.272C477.554 688.356 477.514 689.459 480.538 690.724L481.493 690.324L481.91 689.005C480.897 686.308 484.69 685.43 486.093 683.031C486.094 683.03 486.588 680.639 486.632 680.426C488.114 679.424 488.542 679.423 490.247 679.041C493.501 680.163 492.165 682.479 493.521 685.717L494.123 685.332C493.174 683.691 493.072 682.918 492.973 681.123C495.506 677.565 505.55 685.528 509.611 684.329C514.488 685.037 514.15 684.614 518.933 684.535C526.885 684.832 564.893 675.068 573.957 671.531C578.06 669.93 589.698 662.188 596.829 659.307Z"/><path fill="#D49F59" d="M486.632 680.426C488.114 679.424 488.542 679.423 490.247 679.041C493.501 680.163 492.165 682.479 493.521 685.717L494.123 685.332L495.123 686.313C494.866 688.733 494.795 690.058 496.159 692.18C497.592 693.011 496.793 692.729 498.761 692.617C500.141 689.893 497.704 692.097 498.822 689.444C499.658 687.461 499.848 687.287 499.601 685.208L500.342 685.035C502.853 687.858 500.653 692.864 501.775 695.377C503.31 695.447 504.074 694.67 505.386 693.782C507.155 693.714 506.376 693.503 507.839 694.299C507.902 695.648 507.952 695.166 507.538 696.445C509.325 697.254 509.71 696.669 511.463 697.814C512.053 696.73 511.839 697.321 512.071 696.029C513.207 694.135 513.475 692.976 515.207 692.04C516.745 693.103 517.014 694.82 517.583 696.75L518.747 694.574C517.847 692.522 517.486 692.647 517.832 690.866C520.269 689.853 521.093 692.143 522.52 694.097L523.38 693.823C525.162 693.275 526.103 693.11 527.654 693.888C528.183 695.222 528.236 694.601 527.803 695.796L525.44 696.449L525.208 697.156L527.635 697.251L527.737 697.99C526.591 699.272 524.558 700.236 523.994 701.178L523.265 702.869C515.311 705.516 504.874 717.135 495.694 718.039C495.27 718.081 493.623 716.323 493.291 715.976L493.083 714.992C493.143 713.611 493.259 712.916 492.89 711.561C491.623 710.753 490.443 709.741 489.258 708.795C486.579 710.329 487.811 709.525 485.156 710.313C484.469 711.622 484.751 711.595 483.541 712.377C481.814 712.974 481.611 713.789 479.561 713.883L479.02 713.042L479.264 712.025L481 711.051C481.936 709.364 481.202 708.195 480.753 705.805C481.496 704.075 480.931 704.787 482.647 703.715C482.214 702.355 481.961 700.189 481.738 698.703C480.339 700.687 480.25 700.925 478.115 700.321C477.288 699.075 477.626 699.224 477.939 697.254C477.027 695.712 477.674 696.375 475.463 695.684L473.187 693.98C476.334 690.613 473.639 686.262 476.448 684.164L477.313 685.272C477.554 688.356 477.514 689.459 480.538 690.724L481.493 690.324L481.91 689.005C480.897 686.308 484.69 685.43 486.093 683.031C486.094 683.03 486.588 680.639 486.632 680.426Z"/><path fill="#DBAC6C" d="M475.463 695.684L473.187 693.98C476.334 690.613 473.639 686.262 476.448 684.164L477.313 685.272C477.554 688.356 477.514 689.459 480.538 690.724L481.493 690.324L481.91 689.005L482.803 688.425C484.366 689.416 484.438 689.318 485.143 691.102L484.896 692.003L484.267 691.929C482.59 691.743 481.864 691.52 480.276 692.096L479.412 693.058L479.579 693.905C480.356 694.17 481.14 694.415 481.931 694.639C483.78 695.16 484.741 694.635 486.57 693.959L487.359 694.262C487.574 695.952 487.311 696.712 488.28 697.474L488.93 697.192C489.091 695.694 489.171 694.915 489.499 693.422C493.55 692.141 493.759 700.401 495.827 701.789C496.712 702.382 499.145 701.274 500.646 701.996C500.72 704.392 500.391 705.922 501.715 707.596C503.413 707.798 502.737 708.052 503.919 707.208C503.548 705.513 503.351 705.275 502.598 703.75L502.918 702.475C505.894 702.884 508.351 705.266 508.991 708.18L508.574 709.65C503.756 710.304 502.094 716.853 496.325 717.693L495.746 717.082C496.059 714.68 497.482 713.313 498.998 711.325C495.5 708.507 494.983 705.67 493.658 705.007C492.774 707.239 492.941 709.138 492.89 711.561C491.623 710.753 490.443 709.741 489.258 708.795C486.579 710.329 487.811 709.525 485.156 710.313C484.469 711.622 484.751 711.595 483.541 712.377C481.814 712.974 481.611 713.789 479.561 713.883L479.02 713.042L479.264 712.025L481 711.051C481.936 709.364 481.202 708.195 480.753 705.805C481.496 704.075 480.931 704.787 482.647 703.715C482.214 702.355 481.961 700.189 481.738 698.703C480.339 700.687 480.25 700.925 478.115 700.321C477.288 699.075 477.626 699.224 477.939 697.254C477.027 695.712 477.674 696.375 475.463 695.684Z"/><path fill="#D49F59" d="M482.647 703.715C484.151 704.42 484.291 704.472 485.936 704.245C488.471 702.112 486.534 701.197 488.639 699.932L489.436 700.285C489.781 701.47 489.384 702.241 489.019 703.446C489.307 705.044 490 705.424 491.211 706.538L491.131 707.395L489.258 708.795C486.579 710.329 487.811 709.525 485.156 710.313C484.469 711.622 484.751 711.595 483.541 712.377C481.814 712.974 481.611 713.789 479.561 713.883L479.02 713.042L479.264 712.025L481 711.051C481.936 709.364 481.202 708.195 480.753 705.805C481.496 704.075 480.931 704.787 482.647 703.715Z"/><path fill="#926041" d="M474.751 729.439C479.601 728.364 485.45 728.74 490.228 726.711C494.132 725.055 496.034 721.884 500.732 721.791C502.328 721.76 507.395 718.443 509.243 717.42L510.061 717.717C498.593 725.061 488.537 730.059 474.751 729.439Z"/><path fill="#A07659" d="M541.358 691.325C544.185 689.913 547.732 688.207 550.809 687.406L547.823 689.33L547.685 690.958C545.426 692.585 537.683 697.62 535.073 697.211L534.822 696.948C533.492 695.56 531.843 694.428 531.699 692.904L533.05 692.434C534.242 692.223 533.854 692.374 534.894 691.625C533.9 690.691 531.348 690.579 529.191 689.784L530.123 688.961L529.349 689.863L529.773 689.066C535.246 687.196 536.207 689.731 540.652 691.113L541.358 691.325Z"/><path fill="#926041" d="M533.05 692.434C535.61 692.47 535.508 692.882 537.521 694.299L537.639 695.236C536.385 696.323 536.364 696.27 534.822 696.948C533.492 695.56 531.843 694.428 531.699 692.904L533.05 692.434Z"/><defs><linearGradient id="gradient_11" gradientUnits="userSpaceOnUse" x1="683.88788" y1="568.77179" x2="707.09314" y2="601.61682"><stop offset="0" stop-color="#31241D"/><stop offset="1" stop-color="#654737"/></linearGradient></defs><path fill="url(#gradient_11)" d="M848.564 464.663C857.76 466.286 874.04 471.699 871.776 484.098C870.922 488.77 866.015 492.646 862.1 494.99C860.241 496.251 844.959 505.57 843.417 506.215C843.133 508.546 842.968 509.676 843.04 511.994C837.299 513.903 823.3 522.026 817.534 525.186C813.618 527.332 807.114 532.458 802.82 534.022C799.697 536.78 793.531 540.455 789.843 542.779L768.294 556.285C752.054 566.488 734.989 578.32 718.515 587.649C703.15 598.545 687.544 607.365 671.791 617.361C649.295 631.635 626.725 646.509 603.652 659.851C603.846 657.515 610.71 655.671 612.386 653.552C608.727 651.701 601.871 660.804 596.832 661.522L596.079 660.847L596.829 659.307C589.698 662.188 578.06 669.93 573.957 671.531C564.893 675.068 526.885 684.832 518.933 684.535C522.757 681.494 529.966 679.092 534.601 675.966C548.668 666.479 562.047 656.48 577.027 648.442C581.21 646.198 584.734 641.893 589.898 639.322C603.413 627.237 622.093 616.248 637.389 606.525C647.061 600.377 655.676 594.88 665.528 589.07C674.355 583.818 680.031 578.959 688.221 573.414L735.245 542.023C743.572 536.477 753.06 532.783 761.28 527.03L795.901 502.309C802.345 497.706 807.841 493.281 814.703 489.209C820.248 485.919 838.182 476.654 841.299 472.642L841.003 471.004L841.473 470.233C844.09 468.543 846.236 467.27 848.258 464.858L848.564 464.663Z"/><path fill="#805B42" d="M848.564 464.663C857.76 466.286 874.04 471.699 871.776 484.098C870.922 488.77 866.015 492.646 862.1 494.99C862.629 490.825 868.492 487.907 869.333 484.685C864.608 484.678 861.202 490.343 857.004 492.179C855.445 492.861 851.803 493.464 850.017 493.789C849.876 491.372 849.966 488.527 849.982 486.074C843.621 482.12 847.7 479.491 849.945 473.696C846.793 472.013 844.85 471.394 841.473 470.233C844.09 468.543 846.236 467.27 848.258 464.858L848.564 464.663Z"/><path fill="#A07659" d="M852.174 482.444L851.433 482.761C850.496 481.221 850.64 472.138 852.301 470.229C854.007 469.918 853.243 469.776 854.69 470.544C855.547 472.399 855.691 472.914 855.6 474.954C856.889 475.53 859.355 476.281 859.603 477.667C860.62 483.347 855.593 483.506 852.174 482.444Z"/><path fill="#926041" d="M852.174 482.444L851.433 482.761C850.496 481.221 850.64 472.138 852.301 470.229C854.007 469.918 853.243 469.776 854.69 470.544C855.547 472.399 855.691 472.914 855.6 474.954C853.07 477.036 854.669 478.563 852.083 481.262L852.174 482.444Z"/><path fill="#805B42" d="M716.043 586.317L718.515 587.649C703.15 598.545 687.544 607.365 671.791 617.361C649.295 631.635 626.725 646.509 603.652 659.851C603.846 657.515 610.71 655.671 612.386 653.552C608.727 651.701 601.871 660.804 596.832 661.522L596.079 660.847L596.829 659.307C603.293 656.251 609.946 652.382 615.454 647.851C622.501 645.471 647.491 629.644 653.569 624.782L655.425 623.711C660.573 620.82 668.419 616.082 672.541 612.189C688.15 602.089 699.878 595.59 716.043 586.317Z"/><path fill="#926041" d="M716.043 586.317C721.444 583.803 731.575 576.338 737.23 572.725C756.686 560.295 776.444 548.413 796.028 536.199C798.397 534.722 800.525 533.244 803.035 531.992L802.82 534.022C799.697 536.78 793.531 540.455 789.843 542.779L768.294 556.285C752.054 566.488 734.989 578.32 718.515 587.649L716.043 586.317Z"/><path fill="#272525" d="M589.898 639.322C603.413 627.237 622.093 616.248 637.389 606.525C647.061 600.377 655.676 594.88 665.528 589.07C661.922 596.152 626.962 615.062 618.904 620.723C614.326 623.939 594.787 637.886 589.898 639.322Z"/><path fill="#A07659" d="M803.035 531.992C805.141 530.376 842.267 506.559 843.417 506.215C843.133 508.546 842.968 509.676 843.04 511.994C837.299 513.903 823.3 522.026 817.534 525.186C813.618 527.332 807.114 532.458 802.82 534.022L803.035 531.992Z"/><path fill="#664430" d="M615.454 647.851C617.429 643.862 648.583 625.483 653.569 624.782C647.491 629.644 622.501 645.471 615.454 647.851Z"/><path fill="#664430" d="M655.425 623.711C658.333 619.079 666.943 612.55 672.541 612.189C668.419 616.082 660.573 620.82 655.425 623.711Z"/><defs><linearGradient id="gradient_12" gradientUnits="userSpaceOnUse" x1="370.34271" y1="523.54816" x2="362.45184" y2="540.3255"><stop offset="0" stop-color="#787778"/><stop offset="1" stop-color="#A5A3A4"/></linearGradient></defs><path fill="url(#gradient_12)" d="M221.32 470.171C221.527 472.278 221.154 472.179 222.3 473.352L223.201 473.342C224.327 473.338 224.446 473.359 225.54 473.754L226.04 474.516L228.205 472.919L227.707 474.994C230.306 476.196 247.828 483.605 249.845 483.956L248.328 482.005L248.514 481.391C253.284 480.583 267.322 486.044 273.2 487.646L273.927 488.054C276.285 489.354 280.04 490.417 282.167 491.811C283.861 492.922 283.482 495.793 285.988 496.828L287.306 496.241C289.436 496.688 289.636 496.569 291.836 496.152C293.999 497.16 292.927 497.086 295.159 496.471L294.901 496.198C296.47 496.399 303.936 497.74 304.583 497.642C311.261 499.62 310.779 501.132 314.02 502.231C323.467 505.435 330.475 506.559 339.789 511.182C345.201 513.347 346.233 514.308 352.724 516.438C352.635 519.678 355.471 519.468 358.152 519.97C365.709 528.305 369.227 524.659 378.183 528.821C382.657 530.901 385.953 532.289 389.571 535.74C392.654 537.64 397.941 538.32 401.794 540.663C404.226 542.216 405.565 543.125 407.839 544.958L409.539 545.675C412.877 546.246 416.744 548.524 422.91 549.494C425.293 554.551 429.821 557.192 434.85 559.015C437.241 559.882 449.659 563.65 451.288 563.402L451.082 562.275L451.571 561.6L456.098 565.017C456.775 563.395 456.214 563.844 457.499 563.252C459.994 564.548 460.122 564.998 462.989 565.265C467.168 565.446 468.306 565.868 471.084 568.993C477.227 571.068 474.9 573.659 482.719 575.98C485.693 576.706 487.972 576.843 489.254 579.881C492.332 580.313 506.628 586.328 506.931 590.131C504.976 592.509 502.879 592.107 499.995 592.191L500.62 592.817C497.271 595.164 499.251 594.118 498.311 595.295C491.204 592.821 483.175 588.966 476.215 585.933C465.023 581.05 453.779 576.285 442.486 571.639L303.888 513.341L304.594 514.575C299.992 519.483 293.457 519.527 287.985 520.623C280.084 528.103 272.076 535.519 264.75 543.559C261.409 547.226 254.894 551.373 254.627 556.24C254.5 558.572 255.543 560.288 254.26 562.444C252.772 563.129 252.637 562.912 250.89 562.876C245.888 560.863 240.558 558.595 235.473 556.899C233.311 556.024 233.028 555.749 231.119 554.327L228.848 555.755L227.357 554.99L226.172 555.375C218.795 552.789 214.794 533.826 210.288 529.689C207.235 519.305 207.186 503.608 208.767 492.754C210.304 482.204 212.784 476.491 221.32 470.171Z"/><path fill="#ECE4D9" d="M237.034 484.788C259.219 494.259 281.628 504.147 303.888 513.341L304.594 514.575C299.992 519.483 293.457 519.527 287.985 520.623C280.084 528.103 272.076 535.519 264.75 543.559C261.409 547.226 254.894 551.373 254.627 556.24C254.5 558.572 255.543 560.288 254.26 562.444C252.772 563.129 252.637 562.912 250.89 562.876C245.888 560.863 240.558 558.595 235.473 556.899C227.386 534.92 223.766 513.152 231.18 489.781C232.087 486.925 234.397 485.805 237.034 484.788Z"/><path fill="#FEFEFE" d="M248.454 507.609C251.897 508.07 254.255 508.617 257.15 510.662C275.46 523.592 260.05 529.573 252.394 540.791L251.496 541.468C243.225 541.029 223.35 515.969 248.454 507.609Z"/><path fill="#272525" d="M221.32 470.171C221.527 472.278 221.154 472.179 222.3 473.352L223.201 473.342C224.327 473.338 224.446 473.359 225.54 473.754L226.04 474.516C226.529 476.006 226.861 477.61 228.247 478.257C232.137 480.072 236.212 481.859 240.141 483.553C250.948 488.112 261.812 492.531 272.732 496.81C296.415 506.509 320.032 516.369 343.582 526.388C352.068 529.967 360.628 533.534 369.074 537.197C374.698 539.636 380.181 542.652 385.874 545.092C412.305 556.407 438.928 567.266 465.732 577.665C477.163 582.175 487.418 588.517 499.995 592.191L500.62 592.817C497.271 595.164 499.251 594.118 498.311 595.295C491.204 592.821 483.175 588.966 476.215 585.933C465.023 581.05 453.779 576.285 442.486 571.639L303.888 513.341C281.628 504.147 259.219 494.259 237.034 484.788C234.397 485.805 232.087 486.925 231.18 489.781C223.766 513.152 227.386 534.92 235.473 556.899C233.311 556.024 233.028 555.749 231.119 554.327L228.848 555.755L227.357 554.99L226.172 555.375C218.795 552.789 214.794 533.826 210.288 529.689C207.235 519.305 207.186 503.608 208.767 492.754C210.304 482.204 212.784 476.491 221.32 470.171Z"/><defs><linearGradient id="gradient_13" gradientUnits="userSpaceOnUse" x1="217.82889" y1="521.14453" x2="245.21947" y2="509.31015"><stop offset="0" stop-color="#C1A290"/><stop offset="1" stop-color="#D8CABE"/></linearGradient></defs><path fill="url(#gradient_13)" d="M214.794 498.612C215.001 496.393 215.223 494.176 215.459 491.961C215.823 488.668 216.844 479.871 219.772 477.614C220.307 477.201 221.323 477.537 222.218 477.651C226.113 480.132 232.704 482.882 237.034 484.788C234.397 485.805 232.087 486.925 231.18 489.781C223.766 513.152 227.386 534.92 235.473 556.899C233.311 556.024 233.028 555.749 231.119 554.327L228.848 555.755L227.357 554.99C224.707 549.604 222.87 544.694 220.714 539.103C218.726 534.574 217.443 530.157 216.13 525.405C214.852 513.573 213.53 511.019 214.794 498.612Z"/><path fill="#A07659" d="M214.794 498.612C215.351 501.767 217.148 503.363 218.503 506.228C219.146 519.504 221.104 529.119 225.915 541.648C227.118 544.78 230.78 551.594 231.119 554.327L228.848 555.755L227.357 554.99C224.707 549.604 222.87 544.694 220.714 539.103C218.726 534.574 217.443 530.157 216.13 525.405C214.852 513.573 213.53 511.019 214.794 498.612Z"/><path fill="#B18E6F" d="M216.13 525.405L216.919 524.262L217.889 524.246C220.1 526.465 222.158 536.28 220.714 539.103C218.726 534.574 217.443 530.157 216.13 525.405Z"/><path fill="#B18E6F" d="M214.794 498.612C215.001 496.393 215.223 494.176 215.459 491.961C215.823 488.668 216.844 479.871 219.772 477.614C220.307 477.201 221.323 477.537 222.218 477.651C217.968 486.592 218.485 496.514 218.503 506.228C217.148 503.363 215.351 501.767 214.794 498.612Z"/><path fill="#6D6C6C" d="M339.789 511.182C345.201 513.347 346.233 514.308 352.724 516.438C352.635 519.678 355.471 519.468 358.152 519.97C365.709 528.305 369.227 524.659 378.183 528.821C382.657 530.901 385.953 532.289 389.571 535.74C392.654 537.64 397.941 538.32 401.794 540.663C400.286 540.913 398.411 541.163 396.978 541.559C395.39 541.427 395.465 541.635 394.134 542.332C385.857 541.545 375.609 531.375 368.086 527.703C362.062 524.763 351.029 523.324 346.32 518.59C343.168 515.422 343.131 516.434 338.841 514.317C338.55 513.007 339.047 512.732 339.789 511.182Z"/><path fill="#6D6C6C" d="M456.098 565.017C456.775 563.395 456.214 563.844 457.499 563.252C459.994 564.548 460.122 564.998 462.989 565.265C467.168 565.446 468.306 565.868 471.084 568.993C477.227 571.068 474.9 573.659 482.719 575.98C479.453 576.518 479.586 575.921 477.393 576.088C477.362 576.08 477.331 576.071 477.301 576.063C470.622 572.43 465.019 569.265 457.385 568.388C456.261 568.429 456.781 568.58 455.837 567.898C456.204 566.66 456.234 566.301 456.098 565.017Z"/><path fill="#5F5D5E" d="M462.989 565.265C467.168 565.446 468.306 565.868 471.084 568.993C467.59 568.625 464.703 568.46 462.989 565.265Z"/><path fill="#7C7B7C" d="M457.385 568.388C465.019 569.265 470.622 572.43 477.301 576.063C477.331 576.071 477.362 576.08 477.393 576.088C479.586 575.921 479.453 576.518 482.719 575.98C485.693 576.706 487.972 576.843 489.254 579.881L484.714 579.386C483.415 579.236 480.005 577.963 478.541 577.501C470.154 574.847 464.337 573.986 457.385 568.388Z"/><path fill="#5F5D5E" d="M477.393 576.088C479.586 575.921 479.453 576.518 482.719 575.98C485.693 576.706 487.972 576.843 489.254 579.881L484.714 579.386C483.523 578.594 479.045 576.832 477.393 576.088Z"/><path fill="#7C7B7C" d="M396.978 541.559C398.411 541.163 400.286 540.913 401.794 540.663C404.226 542.216 405.565 543.125 407.839 544.958L409.539 545.675C406.11 546.866 400.186 543.299 396.978 541.559Z"/><path fill="#272525" d="M844.531 454.325C850.817 456.779 853.445 458.313 848.564 464.663L848.258 464.858C846.236 467.27 844.09 468.543 841.473 470.233L841.003 471.004L841.299 472.642C838.182 476.654 820.248 485.919 814.703 489.209C807.841 493.281 802.345 497.706 795.901 502.309L761.28 527.03C753.06 532.783 743.572 536.477 735.245 542.023L688.221 573.414C680.031 578.959 674.355 583.818 665.528 589.07C655.676 594.88 647.061 600.377 637.389 606.525C622.093 616.248 603.413 627.237 589.898 639.322C584.734 641.893 581.21 646.198 577.027 648.442C562.047 656.48 548.668 666.479 534.601 675.966C529.966 679.092 522.757 681.494 518.933 684.535C514.15 684.614 514.488 685.037 509.611 684.329C508.236 683.648 503.995 682.1 502.272 681.405C495.482 680.215 471.879 668.894 465.009 665.978C438.012 654.52 410.834 643.114 383.695 631.975C366.153 624.775 341.815 611.123 324.006 606.88C318.36 602.269 306.522 599.735 299.787 596.442C281.933 587.714 263.525 580.374 245.638 571.696C244.102 570.104 242.741 568.87 241.088 567.397L240.579 567.396C235.496 564.634 232.04 564.713 226.493 560.556C218.657 554.684 211.384 538.93 210.288 529.689C214.794 533.826 218.795 552.789 226.172 555.375L227.357 554.99L228.848 555.755L231.119 554.327C233.028 555.749 233.311 556.024 235.473 556.899C240.558 558.595 245.888 560.863 250.89 562.876L384.265 620.756C405.048 629.578 426.293 638.048 447.2 646.638L491.954 665.477C496.317 667.323 511.036 674.91 514.411 673.374C517.099 672.296 526.617 666.182 529.35 664.414L554.681 647.896C579.752 631.486 604.713 614.906 629.56 598.158C640.95 590.561 660.485 578.346 670.928 570.215C676.41 567.29 689.321 558.099 694.966 554.32L743.722 521.726L809.877 478.354C822.248 470.1 832.692 463.494 844.531 454.325Z"/><path fill="#161414" d="M506.048 679.424C509.032 681.281 516.833 682.11 519.76 680.32C527.658 675.488 535.607 669.888 543.477 664.939C571.005 647.836 598.218 630.231 625.104 612.135C685.342 571.368 746.03 531.271 807.159 491.853C816.184 485.864 825.125 479.75 833.98 473.513C837.772 470.832 842.646 466.897 846.459 464.321C846.976 463.971 847.524 464.479 848.258 464.858C846.236 467.27 844.09 468.543 841.473 470.233L841.003 471.004L841.299 472.642C838.182 476.654 820.248 485.919 814.703 489.209C807.841 493.281 802.345 497.706 795.901 502.309L761.28 527.03C753.06 532.783 743.572 536.477 735.245 542.023L688.221 573.414C680.031 578.959 674.355 583.818 665.528 589.07C655.676 594.88 647.061 600.377 637.389 606.525C622.093 616.248 603.413 627.237 589.898 639.322C584.734 641.893 581.21 646.198 577.027 648.442C562.047 656.48 548.668 666.479 534.601 675.966C529.966 679.092 522.757 681.494 518.933 684.535C514.15 684.614 514.488 685.037 509.611 684.329C508.236 683.648 503.995 682.1 502.272 681.405C503.528 679.343 503.237 679.716 505.457 679.388L506.048 679.424Z"/><path fill="#272525" d="M241.088 567.397C244.573 566.435 245.452 567.266 248.885 568.584C262.94 573.98 276.315 580.943 290.062 587.019L362.003 618.011L457.877 659.347C472.443 665.629 491.497 672.663 505.457 679.388C503.237 679.716 503.528 679.343 502.272 681.405C495.482 680.215 471.879 668.894 465.009 665.978C438.012 654.52 410.834 643.114 383.695 631.975C366.153 624.775 341.815 611.123 324.006 606.88C318.36 602.269 306.522 599.735 299.787 596.442C281.933 587.714 263.525 580.374 245.638 571.696C244.102 570.104 242.741 568.87 241.088 567.397Z"/><path fill="#6D6C6C" d="M210.288 529.689C214.794 533.826 218.795 552.789 226.172 555.375L227.357 554.99L228.848 555.755L228.231 556.386C228.545 556.789 299.988 589.102 308.339 592.798L458.621 657.86C473.533 664.411 488.573 670.668 503.569 677.021C505.259 677.736 505.382 678.086 506.048 679.424L505.457 679.388C491.497 672.663 472.443 665.629 457.877 659.347L362.003 618.011L290.062 587.019C276.315 580.943 262.94 573.98 248.885 568.584C245.452 567.266 244.573 566.435 241.088 567.397L240.579 567.396C235.496 564.634 232.04 564.713 226.493 560.556C218.657 554.684 211.384 538.93 210.288 529.689Z"/><path fill="#B18E6F" d="M514.411 673.374L514.406 672.22C516.487 669.966 518.668 666.398 520.703 663.825C534.469 646.423 557.587 636.065 576.436 624.729C590.044 616.396 603.513 607.839 616.839 599.062C622.729 595.128 631.632 586.439 637.385 583.339C643.271 580.167 665.411 570.915 670.928 570.215C660.485 578.346 640.95 590.561 629.56 598.158C604.713 614.906 579.752 631.486 554.681 647.896L529.35 664.414C526.617 666.182 517.099 672.296 514.411 673.374Z"/><defs><linearGradient id="gradient_14" gradientUnits="userSpaceOnUse" x1="712.74524" y1="717.04956" x2="667.56714" y2="652.37189"><stop offset="0" stop-color="#B0AFAE" stop-opacity="0.71764708"/><stop offset="1" stop-color="#737171" stop-opacity="0.83137256"/></linearGradient></defs><path fill="url(#gradient_14)" d="M851.174 542.685C852.306 544.07 854.63 546.572 855.038 548.22C855.494 550.056 854.345 552.615 855.735 552.89L856.99 552.099C858.69 552.853 860.341 554.887 861.751 556.325C862.706 555.354 862.374 555.77 862.847 554.366C864.709 554.607 871.818 561.954 875.179 564.197L875.793 564.615C874.668 562.227 874.009 561.062 873.414 558.459C877.168 562.129 883.486 567.022 884.792 571.922C884.49 573.441 884.723 573.866 883.798 574.498L883.167 574.364C876.719 589.291 874.739 589.229 861.698 600.207C859.403 602.138 855.491 606.341 853.226 608.613C848.687 610.522 845.206 620.847 843.703 625.284L843.303 624.196C840.859 625.483 839.084 627.704 836.678 629.283C785.159 663.099 736.277 700.564 685.819 735.854C675.15 743.315 665.745 750.368 653.106 753.881C651.375 754.362 646.354 755.907 645.86 757.49C646.975 758.37 646.89 758.325 648.261 758.699C618.373 766.401 606.003 786.402 574.516 789.43C576.921 787.206 578.203 785.882 581.049 784.097L581.204 783.686C577.608 783.886 575.225 786.033 572.878 786.142C569.475 786.301 565.886 785.182 561.993 785.851C561.562 786.928 561.549 787.001 561.265 788.095L559.282 789.311L559.171 789.934C554.509 790.115 550.598 789.313 545.941 789.093C541.656 785.063 520.739 775.108 514.732 773.276C522.25 771.437 524.793 771.454 530.476 766.405C527.324 767.301 512.993 772.036 511.515 774.213C499.053 779.896 491.583 781.265 477.348 779.697C489.213 779.018 498.439 772.127 508.004 765.692C511.765 766.379 518.385 761.952 521.95 759.921C535.444 753.478 545.83 745.237 558.025 738.407C567.093 733.328 578.638 727.883 588.214 722.724C605.088 713.447 621.889 704.037 638.616 694.496C648.536 688.892 660.662 682.705 670.084 676.446C694.817 660.016 719.229 642.502 743.614 625.558C767.375 609.049 791.819 594.485 813.222 574.763C820.523 568.036 827.833 561.302 835.697 555.233C838.046 553.402 840.296 552.323 842.446 550.19L842.38 549.285C843.194 548.47 849.405 544.11 851.174 542.685Z"/><defs><linearGradient id="gradient_15" gradientUnits="userSpaceOnUse" x1="766.96198" y1="713.86255" x2="745.44696" y2="684.98816"><stop offset="0" stop-color="#C9C8C9" stop-opacity="0.61960787"/><stop offset="1" stop-color="#A5A4A3" stop-opacity="0.7019608"/></linearGradient></defs><path fill="url(#gradient_15)" d="M648.261 758.699C646.89 758.325 646.975 758.37 645.86 757.49C646.354 755.907 651.375 754.362 653.106 753.881C665.745 750.368 675.15 743.315 685.819 735.854C736.277 700.564 785.159 663.099 836.678 629.283C839.084 627.704 840.859 625.483 843.303 624.196L843.703 625.284C845.206 620.847 848.687 610.522 853.226 608.613C845.765 619.875 842.19 635.769 837.093 648.416C836.366 650.22 833.707 652.649 833.622 654.321C839.954 647.816 840.576 644.234 844.936 636.815L845.45 636.989C846.112 638.953 844.186 642.985 842.825 644.463C843.122 646.204 843.095 645.71 844.555 647.241C827.406 675.503 798.026 691.636 771.429 710.036C753.355 722.54 734.488 736.302 714.571 745.752C697.431 753.886 673.821 752.761 655.386 757.091C653.408 757.555 650.142 758.409 648.261 758.699Z"/><defs><linearGradient id="gradient_16" gradientUnits="userSpaceOnUse" x1="683.80457" y1="666.87878" x2="673.23639" y2="651.75696"><stop offset="0" stop-color="#6C6C6C" stop-opacity="0.82745099"/><stop offset="1" stop-color="#6C6A6A" stop-opacity="0.89411765"/></linearGradient></defs><path fill="url(#gradient_16)" d="M842.38 549.285L842.446 550.19C840.296 552.323 838.046 553.402 835.697 555.233C827.833 561.302 820.523 568.036 813.222 574.763C791.819 594.485 767.375 609.049 743.614 625.558C719.229 642.502 694.817 660.016 670.084 676.446C660.662 682.705 648.536 688.892 638.616 694.496C621.889 704.037 605.088 713.447 588.214 722.724C578.638 727.883 567.093 733.328 558.025 738.407C545.83 745.237 535.444 753.478 521.95 759.921C520.45 759.801 517.666 760.126 516.01 760.234C517.984 758.761 519.194 758.475 521.049 756.511C524.157 753.989 535.956 746.803 539.757 744.366L577.979 719.468C580.772 717.683 584.15 716.15 586.903 714.327C634.927 682.784 683.197 651.619 731.71 620.834C756.315 604.971 780.825 588.962 805.239 572.809C809.815 569.777 832.608 554.029 835.418 552.917C837.761 552.681 840.319 550.639 842.38 549.285Z"/><defs><linearGradient id="gradient_17" gradientUnits="userSpaceOnUse" x1="233.94377" y1="709.45209" x2="212.8597" y2="682.36865"><stop offset="0" stop-color="#947678"/><stop offset="1" stop-color="#BF8C92"/></linearGradient></defs><path fill="url(#gradient_17)" d="M238.452 677.615C241.892 678.752 262.137 687.083 264.212 688.839C255.373 690.099 246.612 691.853 237.97 694.092C230.453 696.009 191.046 709.145 186.86 707.081C185.695 705.351 186.118 703.031 186.267 700.876C192.247 703.599 196.617 696.683 200.177 692.568C210.311 689.268 225.341 687.471 234.866 681.468C235.573 681.022 237.805 678.383 238.452 677.615Z"/><path fill="#CECBCB" fill-opacity="0.49019608" d="M884.792 571.922C884.627 592.618 870.281 594.249 859.13 608.736C851.398 618.781 851.232 638.292 844.555 647.241C843.095 645.71 843.122 646.204 842.825 644.463C844.186 642.985 846.112 638.953 845.45 636.989L844.936 636.815C840.576 644.234 839.954 647.816 833.622 654.321C833.707 652.649 836.366 650.22 837.093 648.416C842.19 635.769 845.765 619.875 853.226 608.613C855.491 606.341 859.403 602.138 861.698 600.207C874.739 589.229 876.719 589.291 883.167 574.364L883.798 574.498C884.723 573.866 884.49 573.441 884.792 571.922Z"/><path fill="#CECBCB" fill-opacity="0.9254902" d="M511.515 774.213C512.993 772.036 527.324 767.301 530.476 766.405C524.793 771.454 522.25 771.437 514.732 773.276C520.739 775.108 541.656 785.063 545.941 789.093C534.87 787.547 521.737 778.768 511.515 774.213Z"/><path fill="#CECBCB" fill-opacity="0.76862746" d="M851.174 542.685L854.289 541.132C862.665 548.782 863.601 551.566 873.414 558.459C874.009 561.062 874.668 562.227 875.793 564.615L875.179 564.197C871.818 561.954 864.709 554.607 862.847 554.366C862.374 555.77 862.706 555.354 861.751 556.325C860.341 554.887 858.69 552.853 856.99 552.099L855.735 552.89C854.345 552.615 855.494 550.056 855.038 548.22C854.63 546.572 852.306 544.07 851.174 542.685Z"/><path fill="#CECBCB" fill-opacity="0.86274511" d="M559.171 789.934L559.282 789.311L561.265 788.095C561.549 787.001 561.562 786.928 561.993 785.851C565.886 785.182 569.475 786.301 572.878 786.142C575.225 786.033 577.608 783.886 581.204 783.686L581.049 784.097C578.203 785.882 576.921 787.206 574.516 789.43C570.082 790.55 563.681 790.51 559.171 789.934Z"/><path fill="#6D6C6C" fill-opacity="0.89411765" d="M516.01 760.234C517.666 760.126 520.45 759.801 521.95 759.921C518.385 761.952 511.765 766.379 508.004 765.692C509.911 764.14 513.9 761.371 516.01 760.234Z"/></svg>